<svg xmlns="http://www.w3.org/2000/svg" xmlns:xlink="http://www.w3.org/1999/xlink" width="146" height="48" viewBox="0 0 146 48">
  <defs>
    <clipPath id="clip-path">
      <rect id="長方形_1020" data-name="長方形 1020" width="146" height="48" transform="translate(90 115)" fill="#fff"/>
    </clipPath>
  </defs>
  <g id="logo" transform="translate(-90 -113)">
    <g id="マスクグループ_3" data-name="マスクグループ 3" transform="translate(0 -2)" clip-path="url(#clip-path)">
      <g id="logo-2" data-name="logo">
        <path id="パス_356" data-name="パス 356" d="M1.148-12.712V-9.1h25.76v-3.612ZM49.7-1.512H37.38V-4.368H49.7Zm-10.5-12.6h8.148v2.464H39.2Zm5.992,5.124h5.432v-7.756H36.064v7.756h5.46c-.028.56-.084,1.176-.14,1.736H34.048v9.6H37.38V1.316H49.7V2.324h3.444V-7.252H44.716Zm-.224-12.4v-2.324H41.5v2.324H31.444v7h3.248v-3.976H52.024v3.976H55.44v-7Zm29.008,5.46H71.148v-3.052h2.828Zm6.972,6.216a5.422,5.422,0,0,1-1.148-.616c-.056,1.26-.168,1.456-.644,1.456H77.728c-.532,0-.616-.084-.616-.812V-12.88h3.836ZM64.6-2.324V-6.3a11.32,11.32,0,0,1,1.848,1.764,8.4,8.4,0,0,0,4.7-8.036v-.308h2.8v3.22c0,2.772.532,3.7,3.248,3.7h2.352a3.5,3.5,0,0,0,1.4-.224v3.864ZM68.04-12.88v.252A5.857,5.857,0,0,1,64.6-6.972V-12.88Zm17.248-6.1v-3.192H60.256v3.192h7.616v3.052h-6.5V2.324H64.6V.728H80.948v1.54h3.388v-18.2H77.28v-3.052Zm25.732,15.4a52.037,52.037,0,0,0-3.976-3.584c.084-.364.14-.756.2-1.12h3.78Zm-9.912-4.7h3.22a5.969,5.969,0,0,1-3.22,4.648ZM97.552-13.1h6.888v2.016h-6.3V2.436h2.968v-5.18a9.456,9.456,0,0,1,1.26,1.512,9.289,9.289,0,0,0,3.668-3.416,28.756,28.756,0,0,1,3.22,3.276l1.764-1.6v2.1c0,.308-.112.42-.476.42-.336.028-1.568.028-2.688-.028a9.963,9.963,0,0,1,1.064,2.884,8.915,8.915,0,0,0,4-.532c1.008-.476,1.288-1.26,1.288-2.688V-11.088h-6.86V-13.1h7.616v-2.8H97.552Zm7.756-7.644v-2.94H101.78v2.94h-8.4v6.72A20.538,20.538,0,0,0,91.5-18.452L89.1-17.276A24.317,24.317,0,0,1,91-11.928l2.38-1.288v.784c0,.84,0,1.708-.056,2.6-1.68.84-3.3,1.6-4.452,2.1l.952,3.136c1.008-.56,2.044-1.176,3.08-1.792a12.859,12.859,0,0,1-3.22,6.5,13.614,13.614,0,0,1,2.38,2.212C95.928-1.512,96.572-7.924,96.572-12.4v-5.348h18.564v-3Zm36.008,5.208H131.18v-2.3h10.136Zm-13.1-5.124v5.516h2.072v2.464h11.928v-2.492h2.156v-5.488h-6.692V-23.6h-3.22v2.94Zm-1.988-1.988-.476.14h-6.076V2.436h2.884v-21.98h2.184c-.448,1.9-1.036,4.34-1.6,6.1a7.494,7.494,0,0,1,1.932,4.9c0,.784-.112,1.344-.42,1.568a1.45,1.45,0,0,1-.784.252c-.364,0-.728,0-1.232-.028a7.06,7.06,0,0,1,.728,2.828,11.971,11.971,0,0,0,1.792-.056,4,4,0,0,0,1.624-.588c.868-.616,1.232-1.792,1.232-3.584a8.62,8.62,0,0,0-2.044-5.628c.784-2.184,1.708-5.236,2.436-7.616Zm14.252,21.9c-.392,0-.448-.084-.448-.9V-7.7h4.2v-2.968h-15.6V-7.7h3.08c-.28,3.892-1.12,6.16-5.6,7.5a7.67,7.67,0,0,1,1.764,2.6c5.46-1.82,6.636-5.04,6.972-10.108h2.072v6.076c0,2.856.532,3.808,2.968,3.808h1.876c1.988,0,2.716-1.064,3-4.984a8.561,8.561,0,0,1-2.772-1.232c-.056,2.856-.14,3.276-.588,3.276Z" transform="translate(89 140)" fill="#4f819f"/>
        <path id="パス_355" data-name="パス 355" d="M3.57-6.95v-.38H.49v.38l1.02.11c.02.96.02,1.93.02,2.91v.54c0,.98,0,1.94-.02,2.9L.49-.38V0H3.57V-.38L2.55-.5c-.02-.96-.02-1.93-.02-2.89v-.54c0-.98,0-1.96.02-2.91ZM9.46-1.3a1.821,1.821,0,0,1-1.53.83c-1.05,0-1.81-.8-1.81-2.21S6.8-4.92,7.8-4.92a1.919,1.919,0,0,1,.59.1l.21.77a.548.548,0,0,0,.58.51.451.451,0,0,0,.48-.4,1.863,1.863,0,0,0-1.92-1.4A2.591,2.591,0,0,0,5.18-2.58,2.441,2.441,0,0,0,7.65.14,2,2,0,0,0,9.68-1.2Zm6.89.84c-.01-.55-.02-1.31-.02-1.84V-3.34c0-1.43-.48-2-1.41-2a2.813,2.813,0,0,0-2,1.03V-6.46l.03-1.56-.14-.08-1.66.46v.33l.89.08V-2.3c0,.51-.01,1.28-.02,1.84l-.82.12V0h2.52V-.34l-.76-.12c-.01-.56-.02-1.33-.02-1.84V-3.92a2.235,2.235,0,0,1,1.57-.73c.62,0,.92.32.92,1.33V-2.3c0,.53-.01,1.29-.02,1.84l-.82.12V0h2.52V-.34Zm3.68-6.13a.685.685,0,0,0,.7-.68.671.671,0,0,0-.7-.67.668.668,0,0,0-.71.67A.682.682,0,0,0,20.03-6.59Zm.48,6.13c-.01-.56-.02-1.33-.02-1.84V-3.77l.02-1.46-.15-.1-1.68.59v.33l.89.08c.02.48.03.84.03,1.45v.58c0,.51-.01,1.28-.02,1.84l-.84.12V0h2.52V-.34Zm7.57,0c-.01-.55-.02-1.31-.02-1.84V-3.35c0-1.41-.47-1.99-1.4-1.99a2.8,2.8,0,0,0-1.97,1.01l-.09-.9-.15-.1-1.54.6v.33l.87.09c.02.44.03.82.03,1.44v.57c0,.51-.01,1.28-.02,1.84l-.81.12V0H25.5V-.34l-.76-.12c-.01-.56-.02-1.33-.02-1.84V-3.92a2.249,2.249,0,0,1,1.53-.73c.64,0,.91.34.91,1.33V-2.3c0,.53-.01,1.29-.02,1.84l-.81.12V0h2.52V-.34Zm5,.6A2.507,2.507,0,0,0,35.6-2.58a2.542,2.542,0,0,0-2.52-2.76,2.536,2.536,0,0,0-2.51,2.76A2.5,2.5,0,0,0,33.08.14Zm0-.42c-.96,0-1.51-.79-1.51-2.3s.55-2.34,1.51-2.34,1.51.82,1.51,2.34S34.03-.28,33.08-.28ZM45.75-.46c-.01-.55-.02-1.31-.02-1.84V-3.44c0-1.35-.51-1.9-1.4-1.9a2.57,2.57,0,0,0-1.98,1.03,1.218,1.218,0,0,0-1.3-1.03,2.684,2.684,0,0,0-1.91,1l-.09-.89-.15-.1-1.54.6v.33l.87.09c.03.44.03.82.03,1.44v.57c0,.51-.01,1.28-.02,1.84l-.81.12V0h2.52V-.34l-.76-.12c-.01-.56-.02-1.33-.02-1.84V-3.92a2.158,2.158,0,0,1,1.49-.72c.62,0,.9.33.9,1.33V-2.3c0,.53-.01,1.29-.02,1.84l-.83.12V0h2.52V-.34l-.75-.12c-.02-.55-.03-1.31-.03-1.84V-3.35a4.732,4.732,0,0,0-.03-.56,2.22,2.22,0,0,1,1.5-.73c.63,0,.92.29.92,1.31V-2.3c0,.53-.01,1.29-.02,1.84l-.81.12V0h2.51V-.34Zm3.68-6.13a.685.685,0,0,0,.7-.68.671.671,0,0,0-.7-.67.668.668,0,0,0-.71.67A.682.682,0,0,0,49.43-6.59Zm.48,6.13c-.01-.56-.02-1.33-.02-1.84V-3.77l.02-1.46-.15-.1-1.68.59v.33l.89.08c.02.48.03.84.03,1.45v.58c0,.51-.01,1.28-.02,1.84l-.84.12V0h2.52V-.34ZM57.4-5.19H55.28v.34l.99.11L54.89-.85l-1.44-3.9.95-.1v-.34H51.8v.34l.62.08L54.46.32l-.05.12a3.622,3.622,0,0,1-1.06,1.63l-.08-.08a1.1,1.1,0,0,0-.8-.4.657.657,0,0,0-.7.45c0,.41.46.69.98.69.8,0,1.49-.74,2.2-2.62l1.84-4.86.61-.1Zm4.29,4.05c-.61.48-.86.64-1.25.64a.794.794,0,0,1-.89-.85c0-.4.17-.83,1.13-1.2.24-.09.62-.22,1.01-.33Zm1.74.49a.564.564,0,0,1-.44.27c-.25,0-.4-.18-.4-.7V-3.46c0-1.36-.55-1.88-1.7-1.88a1.949,1.949,0,0,0-2.12,1.35.436.436,0,0,0,.49.42c.28,0,.46-.17.55-.51l.21-.75a2.441,2.441,0,0,1,.62-.09c.74,0,1.05.28,1.05,1.36v.34a10.674,10.674,0,0,0-1.26.36c-1.43.51-1.81.99-1.81,1.66A1.316,1.316,0,0,0,60.07.14a2.193,2.193,0,0,0,1.64-.88.945.945,0,0,0,.98.86,1.028,1.028,0,0,0,.94-.56Zm6.67.19c-.01-.55-.02-1.31-.02-1.84V-3.35c0-1.41-.47-1.99-1.4-1.99a2.8,2.8,0,0,0-1.97,1.01l-.09-.9-.15-.1-1.54.6v.33l.87.09c.02.44.03.82.03,1.44v.57c0,.51-.01,1.28-.02,1.84L65-.34V0h2.52V-.34l-.76-.12c-.01-.56-.02-1.33-.02-1.84V-3.92a2.249,2.249,0,0,1,1.53-.73c.64,0,.91.34.91,1.33V-2.3c0,.53-.01,1.29-.02,1.84l-.81.12V0h2.52V-.34Zm3.68-6.13a.685.685,0,0,0,.7-.68.671.671,0,0,0-.7-.67.668.668,0,0,0-.71.67A.682.682,0,0,0,73.78-6.59Zm.48,6.13c-.01-.56-.02-1.33-.02-1.84V-3.77l.02-1.46-.15-.1-1.68.59v.33l.89.08c.02.48.03.84.03,1.45v.58c0,.51-.01,1.28-.02,1.84l-.84.12V0h2.52V-.34Zm4.48-2.68c-.74-.27-1.02-.48-1.02-.97s.37-.8,1.07-.8a1.746,1.746,0,0,1,.79.2l.21.93h.49l.04-1.11a2.8,2.8,0,0,0-1.53-.45c-1.23,0-1.91.72-1.91,1.53,0,.75.53,1.18,1.34,1.48l.51.17c.72.27,1.02.52,1.02,1,0,.52-.4.88-1.26.88a2.1,2.1,0,0,1-.9-.18l-.24-1.01h-.52l.02,1.2A3.449,3.449,0,0,0,78.5.14c1.39,0,2.12-.72,2.12-1.56,0-.69-.42-1.2-1.5-1.58ZM87.32-.46c-.01-.55-.02-1.31-.02-1.84V-3.34c0-1.43-.48-2-1.41-2a2.813,2.813,0,0,0-2,1.03V-6.46l.03-1.56-.14-.08-1.66.46v.33l.89.08V-2.3c0,.51-.01,1.28-.02,1.84l-.82.12V0h2.52V-.34l-.76-.12c-.01-.56-.02-1.33-.02-1.84V-3.92a2.235,2.235,0,0,1,1.57-.73c.62,0,.92.32.92,1.33V-2.3c0,.53-.01,1.29-.02,1.84l-.82.12V0h2.52V-.34ZM91-6.59a.685.685,0,0,0,.7-.68.671.671,0,0,0-.7-.67.668.668,0,0,0-.71.67A.682.682,0,0,0,91-6.59Zm.48,6.13c-.01-.56-.02-1.33-.02-1.84V-3.77l.02-1.46-.15-.1-1.68.59v.33l.89.08c.02.48.03.84.03,1.45v.58c0,.51-.01,1.28-.02,1.84l-.84.12V0h2.52V-.34Zm13.63-6.49v-.38h-3.07v.38l1.01.11c.02.95.02,1.91.02,2.87H99.5c0-.97,0-1.93.02-2.87l1.01-.11v-.38H97.46v.38l1.02.11c.02.96.02,1.93.02,2.91v.54c0,.98,0,1.94-.02,2.9l-1.02.11V0h3.07V-.38L99.52-.49c-.02-.95-.02-1.93-.02-3.05h3.57c0,1.14,0,2.11-.02,3.05l-1.01.11V0h3.07V-.38l-1.02-.11c-.02-.97-.02-1.94-.02-2.9v-.54c0-.98,0-1.96.02-2.91ZM109.26.14a2.507,2.507,0,0,0,2.52-2.72,2.542,2.542,0,0,0-2.52-2.76,2.536,2.536,0,0,0-2.51,2.76A2.5,2.5,0,0,0,109.26.14Zm0-.42c-.96,0-1.51-.79-1.51-2.3s.55-2.34,1.51-2.34,1.51.82,1.51,2.34S110.21-.28,109.26-.28Zm6.36-2.86c-.74-.27-1.02-.48-1.02-.97s.37-.8,1.07-.8a1.746,1.746,0,0,1,.79.2l.21.93h.49l.04-1.11a2.8,2.8,0,0,0-1.53-.45c-1.23,0-1.91.72-1.91,1.53,0,.75.53,1.18,1.34,1.48l.51.17c.72.27,1.02.52,1.02,1,0,.52-.4.88-1.26.88a2.1,2.1,0,0,1-.9-.18l-.24-1.01h-.52l.02,1.2a3.449,3.449,0,0,0,1.65.41c1.39,0,2.12-.72,2.12-1.56,0-.69-.42-1.2-1.5-1.58Zm5.3-1.05a2,2,0,0,1,1.34-.6c.83,0,1.41.77,1.41,2.24,0,1.51-.68,2.13-1.52,2.13a1.739,1.739,0,0,1-1.23-.54Zm-.12-1.04-.15-.1-1.54.6v.33l.88.09c.02.44.03.83.03,1.44V.31c0,.59-.01,1.22-.02,1.84l-.89.14v.33h2.8V2.29l-1-.15c-.01-.62-.02-1.26-.02-1.86V-.59a1.83,1.83,0,0,0,1.49.73c1.28,0,2.24-1.07,2.24-2.77,0-1.68-.91-2.71-2.08-2.71a2.219,2.219,0,0,0-1.67.81Zm6.89-1.36a.685.685,0,0,0,.7-.68.671.671,0,0,0-.7-.67.668.668,0,0,0-.71.67A.682.682,0,0,0,127.69-6.59Zm.48,6.13c-.01-.56-.02-1.33-.02-1.84V-3.77l.02-1.46-.15-.1-1.68.59v.33l.89.08c.02.48.03.84.03,1.45v.58c0,.51-.01,1.28-.02,1.84l-.84.12V0h2.52V-.34Zm5.35-.21a1.225,1.225,0,0,1-.75.31c-.39,0-.63-.24-.63-.82V-4.71h1.48v-.48h-1.47l.06-1.51h-.63l-.29,1.48-.98.12v.39h.93v2.66c0,.41-.01.65-.01.91A1.122,1.122,0,0,0,132.47.14a1.558,1.558,0,0,0,1.27-.56Zm4.74-.47c-.61.48-.86.64-1.25.64a.794.794,0,0,1-.89-.85c0-.4.17-.83,1.13-1.2.24-.09.62-.22,1.01-.33ZM140-.65a.564.564,0,0,1-.44.27c-.25,0-.4-.18-.4-.7V-3.46c0-1.36-.55-1.88-1.7-1.88a1.949,1.949,0,0,0-2.12,1.35.436.436,0,0,0,.49.42c.28,0,.46-.17.55-.51l.21-.75a2.442,2.442,0,0,1,.62-.09c.74,0,1.05.28,1.05,1.36v.34a10.674,10.674,0,0,0-1.26.36c-1.43.51-1.81.99-1.81,1.66A1.316,1.316,0,0,0,136.64.14a2.193,2.193,0,0,0,1.64-.88.945.945,0,0,0,.98.86,1.028,1.028,0,0,0,.94-.56Zm3.28.19c-.01-.6-.02-1.24-.02-1.84V-6.46l.05-1.56-.15-.08-1.69.46v.33l.89.08V-2.3c0,.6-.01,1.24-.02,1.84l-.87.12V0h2.69V-.34Z" transform="translate(91 160)" fill="#022634"/>
      </g>
    </g>
  </g>
</svg>
