<svg xmlns="http://www.w3.org/2000/svg" width="240.665" height="39.366" viewBox="0 0 240.665 39.366">
  <g id="logo" transform="translate(14.867 -4.183)">
    <path id="パス_222" data-name="パス 222" d="M-102.344-8.051-105.391-8q-.27,0-.27-.234V-10.57q0-.234.27-.234l3.047.047h14.461l3.059-.047q.258,0,.258.234v2.332q0,.234-.258.234l-3.059-.047Zm30.209-5.895h5.813l3.164-.047q.2,0,.234.047a.437.437,0,0,1,.035.223l-.047,1.77v2.074l.047,1.793q0,.188-.047.223a.437.437,0,0,1-.223.035l-3.164-.047h-1.922q-.574,1.441-.844,1.969h4.8l3.34-.047q.164,0,.2.059a.473.473,0,0,1,.035.234l-.047,1.91v1.734l.047,3.574q0,.246-.234.246h-2.039q-.211,0-.246-.047a.479.479,0,0,1-.023-.2V.867H-75.112v.8q0,.258-.234.258H-77.42q-.234,0-.234-.258l.047-3.609V-3.434l-.047-2.227a.427.427,0,0,1,.047-.258.335.335,0,0,1,.2-.035l3.328.047h2.426a18.6,18.6,0,0,0,.844-1.969h-1.324l-3.141.047q-.2,0-.234-.047a.4.4,0,0,1-.035-.211l.047-1.793v-2.074l-.047-1.77q0-.2.047-.234a.437.437,0,0,1,.223-.035ZM-75.112-3.82v2.6h11.859v-2.6Zm9.8-5.918v-2.285h-7.8v2.285Zm2.8-7.969,3.141-.047a.427.427,0,0,1,.258.047.4.4,0,0,1,.035.211l-.047,1.277v1.1l.047,2.66a.371.371,0,0,1-.047.234.555.555,0,0,1-.246.035H-61.33q-.2,0-.234-.047a.437.437,0,0,1-.035-.223v-3.117H-76.787v3.141a.371.371,0,0,1-.047.234.4.4,0,0,1-.211.035h-1.992q-.2,0-.234-.047a.437.437,0,0,1-.035-.223l.047-2.684v-.914l-.047-1.465q0-.187.047-.223a.437.437,0,0,1,.223-.035l3.164.047h5.227v-.164a11.2,11.2,0,0,0-.164-2.285q1.207,0,2.566.117.363.035.363.246a.794.794,0,0,1-.047.246q-.07.188-.082.234a4.66,4.66,0,0,0-.117,1.418v.188Zm11.893,1.371-3,.047q-.2,0-.234-.047a.4.4,0,0,1-.035-.211V-18.5q0-.187.047-.223a.437.437,0,0,1,.223-.035l3,.047h14.754l3-.047a.371.371,0,0,1,.234.047.4.4,0,0,1,.035.211v1.957q0,.188-.059.223a.366.366,0,0,1-.211.035l-3-.047h-4.172v2.871h2.52l3.281-.047a.371.371,0,0,1,.234.047.437.437,0,0,1,.035.223l-.047,4.289v4.1l.047,6.141a.371.371,0,0,1-.047.234.437.437,0,0,1-.223.035h-2.039q-.188,0-.223-.059a.366.366,0,0,1-.035-.211V.211H-49.977V1.359a.371.371,0,0,1-.047.234.437.437,0,0,1-.223.035h-2.039q-.187,0-.223-.047a.437.437,0,0,1-.035-.223L-52.5-4.8V-8.426l-.047-4.816q0-.2.047-.234a.4.4,0,0,1,.211-.035l3.293.047h2.063v-2.871Zm.645,5.133V-2.1h13.441V-11.2h-3.5V-7.84a.646.646,0,0,0,.07.375.8.8,0,0,0,.527.117.943.943,0,0,0,.551-.117,8.473,8.473,0,0,0,.164-2.5,10.235,10.235,0,0,0,1.184.527,1.1,1.1,0,0,1,.48.27,1.059,1.059,0,0,1,.105.563q0,.152-.012.41-.094,2.074-.75,2.613a2.776,2.776,0,0,1-1.746.457,5.27,5.27,0,0,1-2.168-.316,1.209,1.209,0,0,1-.6-.621,3.394,3.394,0,0,1-.164-1.219V-11.2h-2.25a13.685,13.685,0,0,1-.867,4.078A8.178,8.178,0,0,1-47.34-4.406q-.363.363-.527.363t-.574-.387a5.3,5.3,0,0,0-1.418-.949,6.873,6.873,0,0,0,2.1-2.684,10.362,10.362,0,0,0,.715-3.141Zm5.426-2.262h2.156v-2.871h-2.156ZM-14.412-4.8a9.172,9.172,0,0,1-2.355,2.813,1.535,1.535,0,0,1-.5.34q-.129,0-.5-.48a8.555,8.555,0,0,0-.879-.844v1.9l.047,2.613q0,.27-.246.27h-1.9q-.211,0-.246-.059a.366.366,0,0,1-.035-.211l.047-2.613V-6.914L-21.033-9.6a.427.427,0,0,1,.047-.258.473.473,0,0,1,.234-.035l3.223.047h1.969q.047-1.395.047-2.062h-2.355l-3.27.047q-.234,0-.234-.258v-1.711q0-.258.234-.258l3.27.047h7.348l3.27-.047q.188,0,.223.047a.4.4,0,0,1,.035.211v1.711q0,.188-.047.223a.4.4,0,0,1-.211.035l-3.27-.047h-2.812l-.047,2.063h2.227l3.223-.047a.371.371,0,0,1,.234.047.555.555,0,0,1,.035.246l-.047,2.871V-3.82l.07,3.105a2.309,2.309,0,0,1-.586,1.77,1.948,1.948,0,0,1-1.055.434,17.739,17.739,0,0,1-2.156.094q-.223.012-.281.012-.34,0-.434-.152a2.27,2.27,0,0,1-.176-.574,3.723,3.723,0,0,0-.551-1.395q.879.059,1.547.059.258,0,.492-.012a.725.725,0,0,0,.82-.82V-7.8H-13.5a9.836,9.836,0,0,1-.223,1.125,26.766,26.766,0,0,1,3.516,2.906q.141.141.141.223t-.176.258l-1.008,1.137q-.188.2-.258.2t-.2-.152A28.142,28.142,0,0,0-14.412-4.8Zm-1.3-3h-2.941v4.441a7.2,7.2,0,0,0,2.32-2.449A6.038,6.038,0,0,0-15.713-7.8Zm-6.7-7.945v3.984a31.285,31.285,0,0,1-.7,7.488,15.844,15.844,0,0,1-2.5,5.543q-.281.434-.434.434-.176,0-.48-.41A6.365,6.365,0,0,0-27.912-.059a10.847,10.847,0,0,0,2.59-5.2,15.388,15.388,0,0,0,.3-1.992q-1.031.6-1.676.914a2.262,2.262,0,0,0-.738.527.579.579,0,0,1-.387.188q-.211,0-.316-.281-.316-1.008-.574-2.215a10.994,10.994,0,0,0,1.852-.551q1.289-.562,2.016-.937.023-.668.023-2.156l-.047-5.965q0-.2.047-.234A.4.4,0,0,1-24.607-18l3.316.047h3.961v-.363a9.157,9.157,0,0,0-.176-1.922q1.254.035,2.578.152.387.035.387.211a1.054,1.054,0,0,1-.152.48,2.91,2.91,0,0,0-.117,1.055v.387h4.746L-6.795-18q.188,0,.223.047a.4.4,0,0,1,.035.211v1.758a.4.4,0,0,1-.047.246.4.4,0,0,1-.211.035l-3.27-.047Zm-4.5-.3a1.17,1.17,0,0,1,.27-.094q.094,0,.188.164a22.068,22.068,0,0,1,1.395,3.574.767.767,0,0,1,.047.188q0,.141-.293.293l-1.219.727a.849.849,0,0,1-.3.117q-.094,0-.152-.223a30.02,30.02,0,0,0-1.348-3.785.532.532,0,0,1-.059-.2q0-.117.2-.211ZM1.242-5q.141.012.27.012Q3.4-4.992,3.4-6.68a8.3,8.3,0,0,0-2.133-4.852A32.838,32.838,0,0,0,3.3-17.121H.9V-3.539L.949,1.617q0,.246-.258.246h-1.9q-.27,0-.27-.246l.047-5.133V-13.91L-1.477-19.1q0-.2.047-.234a.437.437,0,0,1,.223-.035l1.922.047H3.855a1.167,1.167,0,0,0,.48-.07.672.672,0,0,1,.3-.07q.27,0,.914.691a1.907,1.907,0,0,1,.574.961.646.646,0,0,1-.211.434,1.694,1.694,0,0,0-.457.938A35.661,35.661,0,0,1,3.609-11.7,9.542,9.542,0,0,1,5.4-8.555a8.162,8.162,0,0,1,.281,2.332A3.025,3.025,0,0,1,2.555-2.871q-.27.023-.363.023Q1.91-2.848,1.84-3a1.84,1.84,0,0,1-.094-.562A2.892,2.892,0,0,0,1.242-5ZM3.2.047a7,7,0,0,0,4.348-2.7A8.871,8.871,0,0,0,8.7-7.395q-1.1.012-1.957.035l-.445.012H6.152a.371.371,0,0,1-.234-.047.4.4,0,0,1-.035-.211V-9.3q0-.211.059-.258A.366.366,0,0,1,6.152-9.6l3.188.047h6.387l3.2-.047q.187,0,.223.047a.555.555,0,0,1,.035.246v1.7a.352.352,0,0,1-.041.217.352.352,0,0,1-.217.041l-3.2-.047h-.668v5.813q0,.645.188.785a1.849,1.849,0,0,0,.938.141q.762,0,.984-.293a6.722,6.722,0,0,0,.316-2.531,4.977,4.977,0,0,0,1.605.6,1.185,1.185,0,0,1,.516.176.5.5,0,0,1,.094.352q0,.094-.012.27A7.449,7.449,0,0,1,19.3.152a1.91,1.91,0,0,1-.738.9,5.294,5.294,0,0,1-2.859.551,4.781,4.781,0,0,1-2.379-.363,2.236,2.236,0,0,1-.691-1.957v-6.68H11.121A11.524,11.524,0,0,1,9.633-1.418,8.323,8.323,0,0,1,5.7,1.711a2.269,2.269,0,0,1-.574.188q-.176,0-.527-.48A6.113,6.113,0,0,0,3.2.047ZM14.145-11.5H10.934l-2.566.047a.371.371,0,0,1-.234-.047.4.4,0,0,1-.035-.211v-1.16H6.328a.427.427,0,0,1-.258-.047.4.4,0,0,1-.035-.211l.047-2.262v-.668l-.047-1.207q0-.164.059-.2a.473.473,0,0,1,.234-.035l3.211.047H11V-17.7a13.024,13.024,0,0,0-.164-2.32q1.148.023,2.508.188.387.035.387.223a1,1,0,0,1-.117.445,4.428,4.428,0,0,0-.141,1.418v.293h2.039l3.211-.047a.427.427,0,0,1,.258.047.306.306,0,0,1,.035.188l-.047,1.031v.844l.047,2.262q0,.188-.059.223a.473.473,0,0,1-.234.035h-1.77v1.16q0,.188-.047.223a.437.437,0,0,1-.223.035Zm-5.73-3.891v1.758l2.52.047h3.211q2.039,0,2.473-.047v-1.758ZM39.781.363A8.351,8.351,0,0,0,43.1-3.785a17.317,17.317,0,0,0,.8-4.875q-.949.012-1.711.035l-.527.012q-.187,0-.223-.047a.4.4,0,0,1-.035-.211v-1.8a.427.427,0,0,1,.047-.258.4.4,0,0,1,.211-.035l2.285.047v-5.836q-.75.012-1.371.035l-.434.012a.207.207,0,0,1-.234-.234v-1.77q0-.27.234-.27l3.047.047h5.309l3.047-.047q.187,0,.223.047a.438.438,0,0,1,.035.223v1.77q0,.234-.258.234-.035,0-.27-.012-.809-.023-1.746-.035v5.836l2.613-.047q.187,0,.223.059a.473.473,0,0,1,.035.234v1.8a.352.352,0,0,1-.041.217.352.352,0,0,1-.217.041q-.047,0-.34-.012-1.02-.023-2.273-.035V-1.77l.047,3.258a.371.371,0,0,1-.047.234.437.437,0,0,1-.223.035H49.309q-.234,0-.234-.27L49.1-1.77V-8.66H46.344a20.2,20.2,0,0,1-.8,5.332A10.938,10.938,0,0,1,42.43,1.488q-.352.387-.5.387-.129,0-.551-.434A5.63,5.63,0,0,0,39.781.363Zm6.609-11.285H49.1v-5.836H46.391Zm-8.168-5.426h-.48a22.915,22.915,0,0,1-1.406,4.992h2.3l1.723-.047a.371.371,0,0,1,.234.047.437.437,0,0,1,.035.223L40.578-7.9v2.4l.047,4.254a.414.414,0,0,1-.041.234q-.041.047-.229.047H38.75q-.187,0-.223-.047a.516.516,0,0,1-.035-.234v-.586H36.406V.188q0,.188-.047.229a.445.445,0,0,1-.246.041H34.508A.4.4,0,0,1,34.262.41a.437.437,0,0,1-.035-.223l.047-4.336V-7.465q-.492.691-1.055,1.406-.27.34-.434.34-.2,0-.27-.457a7.071,7.071,0,0,0-.621-2.062,15.211,15.211,0,0,0,3.527-8.109h-.141l-2.449.047a.371.371,0,0,1-.234-.047.4.4,0,0,1-.035-.211v-1.758q0-.187.059-.223a.366.366,0,0,1,.211-.035l2.449.047h2.941l2.449-.047q.188,0,.223.047a.4.4,0,0,1,.035.211v1.758q0,.188-.047.223a.4.4,0,0,1-.211.035Zm.27,7.1H36.406v5.332h2.086Zm28.135-1.148a20.556,20.556,0,0,0,4.922-1.723,10.966,10.966,0,0,1-1.922-2.355q-.492.6-1.125,1.277-.422.387-.527.387-.141,0-.5-.434a4.213,4.213,0,0,0-1.008-.891v8.859l.047,3.281a.445.445,0,0,1-.041.246q-.041.047-.229.047H64.389q-.187,0-.223-.059a.473.473,0,0,1-.035-.234l.047-3.281v-7.711A23.653,23.653,0,0,0,64-16.078q1.219.035,2.391.164.41.047.41.293,0,.012-.2.527a3.165,3.165,0,0,0-.117.844,13.814,13.814,0,0,0,3.164-4.465,6.049,6.049,0,0,0,.457-1.465q1.031.2,2.109.5.293.082.293.281a.521.521,0,0,1-.2.363,3.68,3.68,0,0,0-.445.8l-.316.621h5.332l2.824-.047q.246,0,.246.234v1.535a.427.427,0,0,1-.047.258.371.371,0,0,1-.2.035l-.539-.012q-.562-.023-1.254-.035a11.785,11.785,0,0,1-2.672,3.5,18.228,18.228,0,0,0,5.4,1.781,4.953,4.953,0,0,0-.762,1.535q-.234.668-.434.668a2.431,2.431,0,0,1-.527-.117,21.088,21.088,0,0,1-5.578-2.449A20.881,20.881,0,0,1,68.455-8.59a2.554,2.554,0,0,1-.5.117q-.246,0-.5-.6A4.7,4.7,0,0,0,66.627-10.395Zm8.789-5.25H71.233A10.918,10.918,0,0,0,73.4-13.312,9.178,9.178,0,0,0,75.416-15.645ZM57.674-10.8a22.759,22.759,0,0,0,4.348-7.652,9.068,9.068,0,0,0,.387-1.676,13.9,13.9,0,0,1,2.25.668q.363.129.363.363a.573.573,0,0,1-.246.41,3.111,3.111,0,0,0-.48,1.008,32.8,32.8,0,0,1-1.43,3.457V-2.039l.047,3.645q0,.187-.059.234a.366.366,0,0,1-.211.035H60.721q-.187,0-.223-.047a.437.437,0,0,1-.035-.223l.047-3.645v-5.2q0-2.051.023-3.129-.645.855-1.371,1.723-.3.34-.434.34-.152,0-.258-.434A6.457,6.457,0,0,0,57.674-10.8ZM66.451-.187a23.218,23.218,0,0,0,6.68-1.969,18.455,18.455,0,0,0,4.125-2.789A5.181,5.181,0,0,0,78.112-6,12.422,12.422,0,0,1,79.94-4.723q.223.176.223.328,0,.2-.27.316a4.232,4.232,0,0,0-.762.551A23.135,23.135,0,0,1,74.3-.187a24.588,24.588,0,0,1-5.836,1.922,3.146,3.146,0,0,1-.527.07q-.234,0-.457-.48A5.527,5.527,0,0,0,66.451-.187ZM67.3-3.715A21.221,21.221,0,0,0,71.8-5.2a16.954,16.954,0,0,0,2.813-1.734A4.4,4.4,0,0,0,75.5-7.9,14.69,14.69,0,0,1,77.28-6.773a.393.393,0,0,1,.2.316.285.285,0,0,1-.223.293,2.876,2.876,0,0,0-.867.527,20.655,20.655,0,0,1-7.078,3.574,2.433,2.433,0,0,1-.574.141q-.187,0-.434-.457A4.634,4.634,0,0,0,67.3-3.715Zm5.59-6a14.032,14.032,0,0,1,1.77,1.055.354.354,0,0,1,.2.281q0,.188-.27.27a2.812,2.812,0,0,0-.785.41A17.678,17.678,0,0,1,68.807-5.25a3.149,3.149,0,0,1-.562.117q-.2,0-.422-.434a5.866,5.866,0,0,0-.984-1.207,16.422,16.422,0,0,0,5.156-2.109A3.645,3.645,0,0,0,72.885-9.715Zm15.01-7.078V-1.465h14.156l3.293-.047q.187,0,.223.047a.438.438,0,0,1,.035.223v1.9q0,.188-.047.223a.4.4,0,0,1-.211.035L102.051.867H87.895v.773q0,.187-.047.223A.555.555,0,0,1,87.6,1.9H85.563a.352.352,0,0,1-.217-.041.352.352,0,0,1-.041-.217l.047-5.1V-13.84L85.305-18.9q0-.2.047-.234a.437.437,0,0,1,.223-.035l3.188.047h13.2l3.141-.047q.2,0,.234.047a.4.4,0,0,1,.035.211V-17q0,.188-.047.223a.437.437,0,0,1-.223.035l-3.141-.047Zm4.688,8.848L89.289-7.9a.371.371,0,0,1-.234-.047.4.4,0,0,1-.035-.211V-9.773q0-.234.27-.234l3.293.047H95.2a18.247,18.247,0,0,0,.211-2.449H92.77a13.822,13.822,0,0,1-1.254,1.559q-.34.387-.527.387-.152,0-.6-.41a5.771,5.771,0,0,0-1.289-.867,13.134,13.134,0,0,0,2.707-3.352,6.6,6.6,0,0,0,.574-1.535,14.726,14.726,0,0,1,2.109.551q.316.117.316.3a.474.474,0,0,1-.211.34,1.93,1.93,0,0,0-.41.668,1.691,1.691,0,0,1-.176.316h5.906l3.023-.047a.371.371,0,0,1,.234.047.4.4,0,0,1,.035.211v1.594a.4.4,0,0,1-.047.246.437.437,0,0,1-.223.035l-3.023-.047H97.809A19.729,19.729,0,0,1,97.6-9.961h3.422l3.293-.047q.211,0,.246.047t.047.188v1.617q0,.188-.059.223a.473.473,0,0,1-.234.035l-3.293-.047H98.383Q100.328-5.32,105-4.23A9.638,9.638,0,0,0,104-2.566q-.2.527-.422.527a3.149,3.149,0,0,1-.562-.117,11.233,11.233,0,0,1-6.375-4.57q-1.57,3.07-5.93,4.57a3.932,3.932,0,0,1-.574.164q-.2,0-.457-.527a4.9,4.9,0,0,0-1.137-1.441,14.192,14.192,0,0,0,4.148-1.77A5.622,5.622,0,0,0,94.6-7.945Z" transform="translate(105.352 24.421)" fill="#fff"/>
    <path id="パス_223" data-name="パス 223" d="M-119.338-7.273V0h-.881V-7.273ZM-110.925-5h-.881a1.849,1.849,0,0,0-.272-.668,1.884,1.884,0,0,0-.469-.485,2.036,2.036,0,0,0-.609-.3,2.425,2.425,0,0,0-.7-.1,2.21,2.21,0,0,0-1.195.334,2.305,2.305,0,0,0-.849.984,3.643,3.643,0,0,0-.314,1.594,3.643,3.643,0,0,0,.314,1.594,2.305,2.305,0,0,0,.849.984,2.21,2.21,0,0,0,1.195.334,2.425,2.425,0,0,0,.7-.1,2.036,2.036,0,0,0,.609-.3,1.873,1.873,0,0,0,.469-.487,1.867,1.867,0,0,0,.272-.666h.881a2.934,2.934,0,0,1-.362,1,2.7,2.7,0,0,1-.653.748,2.845,2.845,0,0,1-.875.467,3.286,3.286,0,0,1-1.035.16,3.048,3.048,0,0,1-1.655-.455,3.119,3.119,0,0,1-1.14-1.293,4.431,4.431,0,0,1-.415-1.989,4.431,4.431,0,0,1,.415-1.989,3.119,3.119,0,0,1,1.14-1.293,3.048,3.048,0,0,1,1.655-.455,3.286,3.286,0,0,1,1.035.16,2.845,2.845,0,0,1,.875.467,2.713,2.713,0,0,1,.653.746A2.916,2.916,0,0,1-110.925-5Zm2.22,5V-7.273h.881v3.239h3.878V-7.273h.881V0h-.881V-3.253h-3.878V0Zm9.081-7.273V0h-.881V-7.273Zm8.328,0V0h-.852L-96.11-5.71h-.071V0h-.881V-7.273h.852l3.977,5.724h.071V-7.273Zm8.7,3.636a4.431,4.431,0,0,1-.415,1.989,3.119,3.119,0,0,1-1.14,1.293A3.048,3.048,0,0,1-85.807.1a3.048,3.048,0,0,1-1.655-.455A3.119,3.119,0,0,1-88.6-1.648a4.431,4.431,0,0,1-.415-1.989A4.431,4.431,0,0,1-88.6-5.625a3.119,3.119,0,0,1,1.14-1.293,3.048,3.048,0,0,1,1.655-.455,3.048,3.048,0,0,1,1.655.455,3.119,3.119,0,0,1,1.14,1.293A4.431,4.431,0,0,1-82.6-3.636Zm-.852,0a3.643,3.643,0,0,0-.314-1.594,2.305,2.305,0,0,0-.849-.984,2.21,2.21,0,0,0-1.195-.334A2.21,2.21,0,0,0-87-6.214a2.305,2.305,0,0,0-.849.984,3.643,3.643,0,0,0-.314,1.594,3.643,3.643,0,0,0,.314,1.594A2.305,2.305,0,0,0-87-1.058a2.21,2.21,0,0,0,1.195.334,2.21,2.21,0,0,0,1.195-.334,2.305,2.305,0,0,0,.849-.984A3.643,3.643,0,0,0-83.449-3.636Zm3.13-3.636h1.051L-76.8-1.236h.085l2.472-6.037h1.051V0h-.824V-5.526h-.071L-76.357,0h-.8l-2.273-5.526H-79.5V0h-.824Zm10.573,0V0h-.881V-7.273Zm1.936,0H-66.8l2.017,3.395h.085l2.017-3.395h1.009L-64.3-3V0h-.881V-3ZM-60.178,0H-61.1l2.67-7.273h.909L-54.851,0h-.923l-2.173-6.122H-58Zm.341-2.841h3.722v.781h-3.722Zm12.689-4.432V0H-48l-3.963-5.71h-.071V0h-.881V-7.273h.852l3.977,5.724h.071V-7.273Zm3.442,0V0h-.881V-7.273Zm6.539,1.818a1.115,1.115,0,0,0-.518-.838,1.989,1.989,0,0,0-1.115-.3,2.107,2.107,0,0,0-.843.156,1.335,1.335,0,0,0-.561.43,1.024,1.024,0,0,0-.2.621.87.87,0,0,0,.14.5,1.18,1.18,0,0,0,.36.344,2.442,2.442,0,0,0,.462.224q.241.087.444.14l.739.2a6.565,6.565,0,0,1,.634.206,3.008,3.008,0,0,1,.671.357,1.854,1.854,0,0,1,.531.577,1.658,1.658,0,0,1,.21.863,1.922,1.922,0,0,1-.307,1.065,2.117,2.117,0,0,1-.895.756,3.289,3.289,0,0,1-1.426.281,3.321,3.321,0,0,1-1.351-.252,2.141,2.141,0,0,1-.895-.7,2,2,0,0,1-.368-1.048h.909a1.124,1.124,0,0,0,.279.68,1.462,1.462,0,0,0,.618.4,2.455,2.455,0,0,0,.808.13,2.361,2.361,0,0,0,.906-.165,1.533,1.533,0,0,0,.636-.462,1.087,1.087,0,0,0,.234-.694.853.853,0,0,0-.2-.589,1.485,1.485,0,0,0-.533-.369,5.6,5.6,0,0,0-.714-.249l-.895-.256a3.333,3.333,0,0,1-1.349-.7,1.536,1.536,0,0,1-.5-1.19,1.765,1.765,0,0,1,.332-1.067,2.2,2.2,0,0,1,.895-.71,3.028,3.028,0,0,1,1.259-.254,2.972,2.972,0,0,1,1.25.25,2.19,2.19,0,0,1,.868.684,1.7,1.7,0,0,1,.339.984ZM-33.967,0V-7.273h.881v3.239h3.878V-7.273h.881V0h-.881V-3.253h-3.878V0Zm9.081-7.273V0h-.881V-7.273ZM-18.712,0V-7.273h.881v3.239h3.878V-7.273h.881V0h-.881V-3.253h-3.878V0ZM-4.375-3.636A4.431,4.431,0,0,1-4.79-1.648,3.119,3.119,0,0,1-5.93-.355,3.048,3.048,0,0,1-7.585.1,3.048,3.048,0,0,1-9.24-.355a3.119,3.119,0,0,1-1.14-1.293A4.431,4.431,0,0,1-10.8-3.636a4.431,4.431,0,0,1,.415-1.989A3.119,3.119,0,0,1-9.24-6.918a3.048,3.048,0,0,1,1.655-.455,3.048,3.048,0,0,1,1.655.455A3.119,3.119,0,0,1-4.79-5.625,4.431,4.431,0,0,1-4.375-3.636Zm-.852,0a3.643,3.643,0,0,0-.314-1.594,2.305,2.305,0,0,0-.849-.984,2.21,2.21,0,0,0-1.195-.334,2.21,2.21,0,0,0-1.195.334,2.305,2.305,0,0,0-.849.984,3.643,3.643,0,0,0-.314,1.594,3.643,3.643,0,0,0,.314,1.594,2.305,2.305,0,0,0,.849.984,2.21,2.21,0,0,0,1.195.334A2.21,2.21,0,0,0-6.39-1.058a2.305,2.305,0,0,0,.849-.984A3.643,3.643,0,0,0-5.227-3.636ZM1.88-5.455a1.115,1.115,0,0,0-.518-.838,1.989,1.989,0,0,0-1.115-.3A2.107,2.107,0,0,0-.6-6.435,1.335,1.335,0,0,0-1.158-6a1.024,1.024,0,0,0-.2.621.87.87,0,0,0,.14.5,1.18,1.18,0,0,0,.36.344A2.442,2.442,0,0,0-.4-4.316q.241.087.444.14l.739.2a6.565,6.565,0,0,1,.634.206,3.008,3.008,0,0,1,.671.357,1.854,1.854,0,0,1,.531.577,1.658,1.658,0,0,1,.21.863A1.922,1.922,0,0,1,2.524-.909a2.117,2.117,0,0,1-.895.756A3.289,3.289,0,0,1,.2.128,3.321,3.321,0,0,1-1.148-.124a2.141,2.141,0,0,1-.895-.7A2,2,0,0,1-2.41-1.875H-1.5a1.124,1.124,0,0,0,.279.68A1.462,1.462,0,0,0-.6-.8,2.455,2.455,0,0,0,.2-.668a2.361,2.361,0,0,0,.906-.165,1.533,1.533,0,0,0,.636-.462,1.087,1.087,0,0,0,.234-.694.853.853,0,0,0-.2-.589,1.485,1.485,0,0,0-.533-.369A5.6,5.6,0,0,0,.53-3.2l-.895-.256a3.333,3.333,0,0,1-1.349-.7,1.536,1.536,0,0,1-.5-1.19,1.765,1.765,0,0,1,.332-1.067,2.2,2.2,0,0,1,.895-.71A3.028,3.028,0,0,1,.275-7.372a2.972,2.972,0,0,1,1.25.25,2.19,2.19,0,0,1,.868.684,1.7,1.7,0,0,1,.339.984ZM5.08,0V-7.273H7.538a2.833,2.833,0,0,1,1.4.307,1.946,1.946,0,0,1,.808.829,2.554,2.554,0,0,1,.263,1.165A2.59,2.59,0,0,1,9.748-3.8a1.954,1.954,0,0,1-.8.836,2.78,2.78,0,0,1-1.392.311H5.791v-.781H7.524a1.894,1.894,0,0,0,.941-.2,1.215,1.215,0,0,0,.517-.549,1.83,1.83,0,0,0,.162-.783,1.818,1.818,0,0,0-.162-.781,1.185,1.185,0,0,0-.52-.542,1.976,1.976,0,0,0-.952-.2H5.961V0Zm8.03-7.273V0H12.23V-7.273Zm2.164.781v-.781h5.455v.781H18.442V0h-.881V-6.491ZM22.338,0h-.923l2.67-7.273h.909L27.665,0h-.923L24.568-6.122h-.057Zm.341-2.841H26.4v.781H22.679ZM29.6,0V-7.273h.881V-.781h3.381V0ZM39.639,0V-7.273H42.1a2.979,2.979,0,0,1,1.4.289,1.868,1.868,0,0,1,.81.794,2.445,2.445,0,0,1,.263,1.147,2.4,2.4,0,0,1-.263,1.14,1.842,1.842,0,0,1-.806.779,3,3,0,0,1-1.388.282H40.122v-.8h1.96a2.2,2.2,0,0,0,.939-.17,1.085,1.085,0,0,0,.518-.485,1.624,1.624,0,0,0,.162-.751,1.687,1.687,0,0,0-.163-.763,1.123,1.123,0,0,0-.522-.506,2.131,2.131,0,0,0-.948-.179H40.52V0Zm3.423-3.267L44.852,0H43.829L42.068-3.267ZM46.831,0V-7.273H51.22v.781H47.712v2.457h3.281v.781H47.712V-.781h3.565V0ZM57.588-5.455a1.115,1.115,0,0,0-.518-.838,1.989,1.989,0,0,0-1.115-.3,2.107,2.107,0,0,0-.843.156A1.335,1.335,0,0,0,54.55-6a1.024,1.024,0,0,0-.2.621.87.87,0,0,0,.14.5,1.18,1.18,0,0,0,.36.344,2.442,2.442,0,0,0,.462.224q.241.087.444.14l.739.2a6.565,6.565,0,0,1,.634.206,3.008,3.008,0,0,1,.671.357,1.854,1.854,0,0,1,.531.577,1.658,1.658,0,0,1,.21.863,1.922,1.922,0,0,1-.307,1.065,2.117,2.117,0,0,1-.895.756,3.289,3.289,0,0,1-1.426.281,3.321,3.321,0,0,1-1.351-.252,2.141,2.141,0,0,1-.895-.7A2,2,0,0,1,53.3-1.875h.909a1.124,1.124,0,0,0,.279.68,1.462,1.462,0,0,0,.618.4,2.455,2.455,0,0,0,.808.13,2.361,2.361,0,0,0,.906-.165,1.533,1.533,0,0,0,.636-.462,1.087,1.087,0,0,0,.234-.694.853.853,0,0,0-.2-.589,1.485,1.485,0,0,0-.533-.369,5.6,5.6,0,0,0-.714-.249l-.895-.256a3.333,3.333,0,0,1-1.349-.7,1.536,1.536,0,0,1-.5-1.19,1.765,1.765,0,0,1,.332-1.067,2.2,2.2,0,0,1,.895-.71,3.028,3.028,0,0,1,1.259-.254,2.972,2.972,0,0,1,1.25.25,2.19,2.19,0,0,1,.868.684,1.7,1.7,0,0,1,.339.984ZM61.67-7.273V0h-.881V-7.273ZM66.475,0H64.231V-7.273h2.344a3.562,3.562,0,0,1,1.811.435A2.872,2.872,0,0,1,69.54-5.591a4.337,4.337,0,0,1,.4,1.941,4.368,4.368,0,0,1-.4,1.955A2.872,2.872,0,0,1,68.357-.439,3.764,3.764,0,0,1,66.475,0ZM65.112-.781h1.307a2.917,2.917,0,0,0,1.5-.348A2.145,2.145,0,0,0,68.8-2.12a3.686,3.686,0,0,0,.291-1.531A3.669,3.669,0,0,0,68.8-5.169a2.133,2.133,0,0,0-.859-.98,2.728,2.728,0,0,0-1.424-.343H65.112ZM72.218,0V-7.273h4.389v.781H73.1v2.457H76.38v.781H73.1V-.781h3.565V0ZM84.766-7.273V0h-.852L79.95-5.71h-.071V0H79V-7.273h.852l3.977,5.724H83.9V-7.273Zm2.164.781v-.781h5.455v.781H90.1V0h-.881V-6.491Zm15.208,1.037a1.115,1.115,0,0,0-.518-.838,1.989,1.989,0,0,0-1.115-.3,2.107,2.107,0,0,0-.843.156A1.335,1.335,0,0,0,99.1-6a1.024,1.024,0,0,0-.2.621.87.87,0,0,0,.14.5,1.18,1.18,0,0,0,.36.344,2.442,2.442,0,0,0,.462.224q.241.087.444.14l.739.2a6.565,6.565,0,0,1,.634.206,3.008,3.008,0,0,1,.671.357,1.854,1.854,0,0,1,.531.577,1.658,1.658,0,0,1,.21.863,1.922,1.922,0,0,1-.307,1.065,2.117,2.117,0,0,1-.895.756,3.289,3.289,0,0,1-1.426.281A3.321,3.321,0,0,1,99.11-.124a2.141,2.141,0,0,1-.895-.7,2,2,0,0,1-.368-1.048h.909a1.124,1.124,0,0,0,.279.68,1.462,1.462,0,0,0,.618.4,2.455,2.455,0,0,0,.808.13,2.361,2.361,0,0,0,.906-.165A1.533,1.533,0,0,0,102-1.294a1.087,1.087,0,0,0,.234-.694.853.853,0,0,0-.2-.589,1.485,1.485,0,0,0-.533-.369,5.6,5.6,0,0,0-.714-.249l-.895-.256a3.333,3.333,0,0,1-1.349-.7,1.536,1.536,0,0,1-.5-1.19,1.765,1.765,0,0,1,.332-1.067,2.2,2.2,0,0,1,.895-.71,3.028,3.028,0,0,1,1.259-.254,2.972,2.972,0,0,1,1.25.25,2.19,2.19,0,0,1,.868.684,1.7,1.7,0,0,1,.339.984Zm4.081-1.818V0h-.881V-7.273Zm2.164.781v-.781h5.455v.781H111.55V0h-.881V-6.491ZM116,0V-7.273h4.389v.781h-3.509v2.457h3.281v.781h-3.281V-.781h3.565V0Z" transform="translate(105.352 43.421)" fill="#fff" opacity="0.8"/>
  </g>
</svg>
