<svg xmlns="http://www.w3.org/2000/svg" width="252.522" height="41.379" viewBox="0 0 252.522 41.379">
  <g id="logo" transform="translate(196.031 -23.762)">
    <path id="パス_222" data-name="パス 222" d="M4.758-8.051,1.711-8q-.27,0-.27-.234V-10.57q0-.234.27-.234l3.047.047H19.219l3.059-.047q.258,0,.258.234v2.332q0,.234-.258.234l-3.059-.047Zm30.209-5.895h5.813l3.164-.047q.2,0,.234.047a.437.437,0,0,1,.035.223l-.047,1.77v2.074l.047,1.793q0,.188-.047.223a.437.437,0,0,1-.223.035l-3.164-.047H38.857q-.574,1.441-.844,1.969h4.8l3.34-.047q.164,0,.2.059a.473.473,0,0,1,.035.234l-.047,1.91v1.734l.047,3.574q0,.246-.234.246H44.119q-.211,0-.246-.047a.479.479,0,0,1-.023-.2V.867H31.99v.8q0,.258-.234.258H29.682q-.234,0-.234-.258l.047-3.609V-3.434L29.447-5.66a.427.427,0,0,1,.047-.258.335.335,0,0,1,.2-.035l3.328.047h2.426a18.6,18.6,0,0,0,.844-1.969H34.967l-3.141.047q-.2,0-.234-.047a.4.4,0,0,1-.035-.211L31.6-9.879v-2.074l-.047-1.77q0-.2.047-.234a.437.437,0,0,1,.223-.035ZM31.99-3.82v2.6H43.85v-2.6Zm9.8-5.918v-2.285h-7.8v2.285Zm2.8-7.969,3.141-.047a.427.427,0,0,1,.258.047.4.4,0,0,1,.035.211l-.047,1.277v1.1l.047,2.66a.371.371,0,0,1-.047.234.555.555,0,0,1-.246.035H45.772q-.2,0-.234-.047a.437.437,0,0,1-.035-.223v-3.117H30.315v3.141a.371.371,0,0,1-.047.234.4.4,0,0,1-.211.035H28.065q-.2,0-.234-.047a.437.437,0,0,1-.035-.223l.047-2.684v-.914L27.8-17.5q0-.187.047-.223a.437.437,0,0,1,.223-.035l3.164.047h5.227v-.164a11.2,11.2,0,0,0-.164-2.285q1.207,0,2.566.117.363.035.363.246a.794.794,0,0,1-.047.246q-.07.188-.082.234a4.66,4.66,0,0,0-.117,1.418v.188Zm11.893,1.371-3,.047q-.2,0-.234-.047a.4.4,0,0,1-.035-.211V-18.5q0-.187.047-.223a.437.437,0,0,1,.223-.035l3,.047H71.235l3-.047a.371.371,0,0,1,.234.047.4.4,0,0,1,.035.211v1.957q0,.188-.059.223a.366.366,0,0,1-.211.035l-3-.047H67.063v2.871h2.52l3.281-.047a.371.371,0,0,1,.234.047.437.437,0,0,1,.035.223l-.047,4.289v4.1l.047,6.141a.371.371,0,0,1-.047.234.437.437,0,0,1-.223.035H70.824q-.187,0-.223-.059a.366.366,0,0,1-.035-.211V.211H57.125V1.359a.371.371,0,0,1-.047.234.437.437,0,0,1-.223.035H54.817q-.187,0-.223-.047a.437.437,0,0,1-.035-.223L54.606-4.8V-8.426l-.047-4.816q0-.2.047-.234a.4.4,0,0,1,.211-.035l3.293.047h2.063v-2.871Zm.645,5.133V-2.1H70.567V-11.2h-3.5V-7.84a.646.646,0,0,0,.07.375.8.8,0,0,0,.527.117.943.943,0,0,0,.551-.117,8.473,8.473,0,0,0,.164-2.5,10.235,10.235,0,0,0,1.184.527,1.094,1.094,0,0,1,.48.27,1.059,1.059,0,0,1,.105.563q0,.152-.012.41-.094,2.074-.75,2.613a2.776,2.776,0,0,1-1.746.457,5.27,5.27,0,0,1-2.168-.316,1.209,1.209,0,0,1-.6-.621,3.394,3.394,0,0,1-.164-1.219V-11.2h-2.25a13.685,13.685,0,0,1-.867,4.078,8.178,8.178,0,0,1-1.828,2.719q-.363.363-.527.363T58.66-4.43a5.3,5.3,0,0,0-1.418-.949,6.873,6.873,0,0,0,2.1-2.684,10.362,10.362,0,0,0,.715-3.141Zm5.426-2.262h2.156v-2.871H62.551ZM92.69-4.8a9.172,9.172,0,0,1-2.355,2.813,1.535,1.535,0,0,1-.5.34q-.129,0-.5-.48a8.555,8.555,0,0,0-.879-.844v1.9l.047,2.613q0,.27-.246.27h-1.9q-.211,0-.246-.059a.366.366,0,0,1-.035-.211l.047-2.613V-6.914L86.069-9.6a.427.427,0,0,1,.047-.258.473.473,0,0,1,.234-.035l3.223.047h1.969q.047-1.395.047-2.062H89.233l-3.27.047q-.234,0-.234-.258v-1.711q0-.258.234-.258l3.27.047H96.58l3.27-.047q.188,0,.223.047a.4.4,0,0,1,.035.211v1.711q0,.188-.047.223a.4.4,0,0,1-.211.035l-3.27-.047H93.768l-.047,2.063h2.227l3.223-.047a.371.371,0,0,1,.234.047.555.555,0,0,1,.035.246l-.047,2.871V-3.82l.07,3.105a2.309,2.309,0,0,1-.586,1.77,1.948,1.948,0,0,1-1.055.434,17.739,17.739,0,0,1-2.156.094q-.223.012-.281.012-.34,0-.434-.152a2.27,2.27,0,0,1-.176-.574,3.723,3.723,0,0,0-.551-1.395q.879.059,1.547.059.258,0,.492-.012a.725.725,0,0,0,.82-.82V-7.8H93.6a9.836,9.836,0,0,1-.223,1.125A26.766,26.766,0,0,1,96.9-3.773q.141.141.141.223t-.176.258L95.854-2.156q-.187.2-.258.2t-.2-.152A28.142,28.142,0,0,0,92.69-4.8Zm-1.3-3H88.448v4.441a7.2,7.2,0,0,0,2.32-2.449A6.038,6.038,0,0,0,91.389-7.8Zm-6.7-7.945v3.984a31.285,31.285,0,0,1-.7,7.488,15.844,15.844,0,0,1-2.5,5.543q-.281.434-.434.434-.176,0-.48-.41A6.365,6.365,0,0,0,79.19-.059a10.847,10.847,0,0,0,2.59-5.2,15.388,15.388,0,0,0,.3-1.992q-1.031.6-1.676.914a2.262,2.262,0,0,0-.738.527.579.579,0,0,1-.387.188q-.211,0-.316-.281-.316-1.008-.574-2.215a10.994,10.994,0,0,0,1.852-.551q1.289-.562,2.016-.937.023-.668.023-2.156l-.047-5.965q0-.2.047-.234A.4.4,0,0,1,82.494-18l3.316.047h3.961v-.363a9.157,9.157,0,0,0-.176-1.922q1.254.035,2.578.152.387.035.387.211a1.054,1.054,0,0,1-.152.48,2.91,2.91,0,0,0-.117,1.055v.387h4.746l3.27-.047q.188,0,.223.047a.4.4,0,0,1,.035.211v1.758a.4.4,0,0,1-.047.246.4.4,0,0,1-.211.035l-3.27-.047Zm-4.5-.3a1.17,1.17,0,0,1,.27-.094q.094,0,.188.164a22.068,22.068,0,0,1,1.395,3.574.767.767,0,0,1,.047.188q0,.141-.293.293l-1.219.727a.849.849,0,0,1-.3.117q-.094,0-.152-.223a30.02,30.02,0,0,0-1.348-3.785.532.532,0,0,1-.059-.2q0-.117.2-.211ZM108.344-5q.141.012.27.012,1.887,0,1.887-1.687a8.3,8.3,0,0,0-2.133-4.852,32.838,32.838,0,0,0,2.039-5.59H108V-3.539l.047,5.156q0,.246-.258.246h-1.9q-.27,0-.27-.246l.047-5.133V-13.91l-.047-5.191q0-.2.047-.234a.437.437,0,0,1,.223-.035l1.922.047h3.141a1.167,1.167,0,0,0,.48-.07.672.672,0,0,1,.3-.07q.27,0,.914.691a1.907,1.907,0,0,1,.574.961.646.646,0,0,1-.211.434,1.694,1.694,0,0,0-.457.938,35.661,35.661,0,0,1-1.852,4.746A9.542,9.542,0,0,1,112.5-8.555a8.162,8.162,0,0,1,.281,2.332,3.025,3.025,0,0,1-3.129,3.352q-.27.023-.363.023-.281,0-.352-.152a1.84,1.84,0,0,1-.094-.562A2.892,2.892,0,0,0,108.344-5ZM110.3.047a7,7,0,0,0,4.348-2.7A8.871,8.871,0,0,0,115.8-7.395q-1.1.012-1.957.035l-.445.012h-.141a.371.371,0,0,1-.234-.047.4.4,0,0,1-.035-.211V-9.3q0-.211.059-.258a.366.366,0,0,1,.211-.035l3.188.047h6.387l3.2-.047q.187,0,.223.047a.555.555,0,0,1,.035.246v1.7a.352.352,0,0,1-.041.217.352.352,0,0,1-.217.041l-3.2-.047h-.668v5.813q0,.645.188.785a1.849,1.849,0,0,0,.938.141q.762,0,.984-.293a6.722,6.722,0,0,0,.316-2.531,4.977,4.977,0,0,0,1.605.6,1.185,1.185,0,0,1,.516.176.5.5,0,0,1,.094.352q0,.094-.012.27A7.449,7.449,0,0,1,126.4.152a1.91,1.91,0,0,1-.738.9,5.294,5.294,0,0,1-2.859.551,4.781,4.781,0,0,1-2.379-.363,2.236,2.236,0,0,1-.691-1.957v-6.68h-1.512a11.524,11.524,0,0,1-1.488,5.977A8.323,8.323,0,0,1,112.8,1.711a2.269,2.269,0,0,1-.574.188q-.176,0-.527-.48A6.113,6.113,0,0,0,110.3.047ZM121.246-11.5h-3.211l-2.566.047a.371.371,0,0,1-.234-.047.4.4,0,0,1-.035-.211v-1.16h-1.77a.427.427,0,0,1-.258-.047.4.4,0,0,1-.035-.211l.047-2.262v-.668l-.047-1.207q0-.164.059-.2a.473.473,0,0,1,.234-.035l3.211.047h1.465V-17.7a13.024,13.024,0,0,0-.164-2.32q1.148.023,2.508.188.387.035.387.223a1,1,0,0,1-.117.445,4.428,4.428,0,0,0-.141,1.418v.293h2.039l3.211-.047a.427.427,0,0,1,.258.047.306.306,0,0,1,.035.188l-.047,1.031v.844l.047,2.262q0,.188-.059.223a.473.473,0,0,1-.234.035h-1.77v1.16q0,.188-.047.223a.437.437,0,0,1-.223.035Zm-5.73-3.891v1.758l2.52.047h3.211q2.039,0,2.473-.047v-1.758ZM146.883.363A8.351,8.351,0,0,0,150.2-3.785,17.317,17.317,0,0,0,151-8.66q-.949.012-1.711.035l-.527.012q-.187,0-.223-.047a.4.4,0,0,1-.035-.211v-1.8a.427.427,0,0,1,.047-.258.4.4,0,0,1,.211-.035l2.285.047v-5.836q-.75.012-1.371.035l-.434.012a.207.207,0,0,1-.234-.234v-1.77q0-.27.234-.27l3.047.047h5.309l3.047-.047q.188,0,.223.047a.437.437,0,0,1,.035.223v1.77q0,.234-.258.234-.035,0-.27-.012-.809-.023-1.746-.035v5.836l2.613-.047q.188,0,.223.059a.473.473,0,0,1,.035.234v1.8a.352.352,0,0,1-.041.217.352.352,0,0,1-.217.041q-.047,0-.34-.012-1.02-.023-2.273-.035V-1.77l.047,3.258a.371.371,0,0,1-.047.234.437.437,0,0,1-.223.035h-1.992q-.234,0-.234-.27L156.2-1.77V-8.66h-2.754a20.2,20.2,0,0,1-.8,5.332,10.938,10.938,0,0,1-3.117,4.816q-.352.387-.5.387-.129,0-.551-.434A5.63,5.63,0,0,0,146.883.363Zm6.609-11.285H156.2v-5.836h-2.707Zm-8.168-5.426h-.48a22.915,22.915,0,0,1-1.406,4.992h2.3l1.723-.047a.371.371,0,0,1,.234.047.437.437,0,0,1,.035.223L147.68-7.9v2.4l.047,4.254a.414.414,0,0,1-.041.234q-.041.047-.229.047h-1.605q-.187,0-.223-.047a.516.516,0,0,1-.035-.234v-.586h-2.086V.188q0,.188-.047.229a.445.445,0,0,1-.246.041H141.61a.4.4,0,0,1-.246-.047.437.437,0,0,1-.035-.223l.047-4.336V-7.465q-.492.691-1.055,1.406-.27.34-.434.34-.2,0-.27-.457A7.071,7.071,0,0,0,139-8.238a15.211,15.211,0,0,0,3.527-8.109h-.141l-2.449.047a.371.371,0,0,1-.234-.047.4.4,0,0,1-.035-.211v-1.758q0-.187.059-.223a.366.366,0,0,1,.211-.035l2.449.047h2.941l2.449-.047q.188,0,.223.047a.4.4,0,0,1,.035.211v1.758q0,.188-.047.223a.4.4,0,0,1-.211.035Zm.27,7.1h-2.086v5.332h2.086Zm28.135-1.148a20.556,20.556,0,0,0,4.922-1.723,10.966,10.966,0,0,1-1.922-2.355q-.492.6-1.125,1.277-.422.387-.527.387-.141,0-.5-.434a4.213,4.213,0,0,0-1.008-.891v8.859l.047,3.281a.445.445,0,0,1-.041.246q-.041.047-.229.047h-1.852q-.187,0-.223-.059a.473.473,0,0,1-.035-.234l.047-3.281v-7.711a23.653,23.653,0,0,0-.176-3.094q1.219.035,2.391.164.41.047.41.293,0,.012-.2.527a3.165,3.165,0,0,0-.117.844,13.814,13.814,0,0,0,3.164-4.465,6.049,6.049,0,0,0,.457-1.465q1.031.2,2.109.5.293.082.293.281a.521.521,0,0,1-.2.363,3.68,3.68,0,0,0-.445.8l-.316.621h5.332l2.824-.047q.246,0,.246.234v1.535a.427.427,0,0,1-.047.258.371.371,0,0,1-.2.035l-.539-.012q-.562-.023-1.254-.035a11.785,11.785,0,0,1-2.672,3.5,18.228,18.228,0,0,0,5.4,1.781,4.953,4.953,0,0,0-.762,1.535q-.234.668-.434.668a2.431,2.431,0,0,1-.527-.117,21.088,21.088,0,0,1-5.578-2.449,20.881,20.881,0,0,1-4.887,2.133,2.554,2.554,0,0,1-.5.117q-.246,0-.5-.6A4.7,4.7,0,0,0,173.729-10.395Zm8.789-5.25h-4.184a10.918,10.918,0,0,0,2.168,2.332A9.178,9.178,0,0,0,182.518-15.645ZM164.776-10.8a22.759,22.759,0,0,0,4.348-7.652,9.068,9.068,0,0,0,.387-1.676,13.9,13.9,0,0,1,2.25.668q.363.129.363.363a.573.573,0,0,1-.246.41,3.111,3.111,0,0,0-.48,1.008,32.8,32.8,0,0,1-1.43,3.457V-2.039l.047,3.645q0,.187-.059.234a.366.366,0,0,1-.211.035h-1.922q-.187,0-.223-.047a.437.437,0,0,1-.035-.223l.047-3.645v-5.2q0-2.051.023-3.129-.645.855-1.371,1.723-.3.34-.434.34-.152,0-.258-.434A6.457,6.457,0,0,0,164.776-10.8ZM173.553-.187a23.218,23.218,0,0,0,6.68-1.969,18.455,18.455,0,0,0,4.125-2.789A5.18,5.18,0,0,0,185.213-6a12.422,12.422,0,0,1,1.828,1.277q.223.176.223.328,0,.2-.27.316a4.233,4.233,0,0,0-.762.551A23.135,23.135,0,0,1,181.4-.187a24.588,24.588,0,0,1-5.836,1.922,3.146,3.146,0,0,1-.527.07q-.234,0-.457-.48A5.527,5.527,0,0,0,173.553-.187Zm.844-3.527A21.221,21.221,0,0,0,178.9-5.2a16.954,16.954,0,0,0,2.813-1.734A4.4,4.4,0,0,0,182.6-7.9a14.69,14.69,0,0,1,1.781,1.125.393.393,0,0,1,.2.316.285.285,0,0,1-.223.293,2.876,2.876,0,0,0-.867.527,20.655,20.655,0,0,1-7.078,3.574,2.433,2.433,0,0,1-.574.141q-.187,0-.434-.457A4.634,4.634,0,0,0,174.4-3.715Zm5.59-6a14.032,14.032,0,0,1,1.77,1.055.354.354,0,0,1,.2.281q0,.188-.27.27a2.812,2.812,0,0,0-.785.41,17.678,17.678,0,0,1-4.992,2.449,3.149,3.149,0,0,1-.562.117q-.2,0-.422-.434a5.866,5.866,0,0,0-.984-1.207A16.422,16.422,0,0,0,179.1-8.883,3.645,3.645,0,0,0,179.987-9.715ZM195-16.793V-1.465h14.156l3.293-.047q.188,0,.223.047a.437.437,0,0,1,.035.223v1.9q0,.188-.047.223a.4.4,0,0,1-.211.035L209.153.867H195v.773q0,.187-.047.223a.555.555,0,0,1-.246.035h-2.039a.352.352,0,0,1-.217-.041.352.352,0,0,1-.041-.217l.047-5.1V-13.84l-.047-5.062q0-.2.047-.234a.437.437,0,0,1,.223-.035l3.188.047h13.2l3.141-.047q.2,0,.234.047a.4.4,0,0,1,.035.211V-17q0,.188-.047.223a.437.437,0,0,1-.223.035l-3.141-.047Zm4.688,8.848-3.293.047a.371.371,0,0,1-.234-.047.4.4,0,0,1-.035-.211V-9.773q0-.234.27-.234l3.293.047H202.3a18.247,18.247,0,0,0,.211-2.449h-2.637a13.822,13.822,0,0,1-1.254,1.559q-.34.387-.527.387-.152,0-.6-.41a5.771,5.771,0,0,0-1.289-.867,13.134,13.134,0,0,0,2.707-3.352,6.6,6.6,0,0,0,.574-1.535,14.726,14.726,0,0,1,2.109.551q.316.117.316.3a.474.474,0,0,1-.211.34,1.93,1.93,0,0,0-.41.668,1.691,1.691,0,0,1-.176.316h5.906l3.023-.047a.371.371,0,0,1,.234.047.4.4,0,0,1,.035.211v1.594a.4.4,0,0,1-.047.246.437.437,0,0,1-.223.035l-3.023-.047h-2.109a19.729,19.729,0,0,1-.211,2.449h3.422l3.293-.047q.211,0,.246.047t.047.188v1.617q0,.188-.059.223a.473.473,0,0,1-.234.035l-3.293-.047h-2.637q1.945,2.625,6.621,3.715A9.639,9.639,0,0,0,211.1-2.566q-.2.527-.422.527a3.149,3.149,0,0,1-.562-.117,11.233,11.233,0,0,1-6.375-4.57q-1.57,3.07-5.93,4.57a3.932,3.932,0,0,1-.574.164q-.2,0-.457-.527a4.9,4.9,0,0,0-1.137-1.441,14.192,14.192,0,0,0,4.148-1.77,5.622,5.622,0,0,0,1.91-2.215Z" transform="translate(-197 44)" fill="#fff"/>
    <path id="パス_223" data-name="パス 223" d="M1.938-8V0H.969V-8Zm8.925,2.5H9.894a2.034,2.034,0,0,0-.3-.734,2.072,2.072,0,0,0-.516-.533,2.24,2.24,0,0,0-.67-.326A2.668,2.668,0,0,0,7.644-7.2a2.431,2.431,0,0,0-1.314.367A2.536,2.536,0,0,0,5.4-5.754,4.007,4.007,0,0,0,5.05-4,4.007,4.007,0,0,0,5.4-2.246a2.536,2.536,0,0,0,.934,1.082A2.431,2.431,0,0,0,7.644-.8a2.668,2.668,0,0,0,.766-.109,2.24,2.24,0,0,0,.67-.326,2.06,2.06,0,0,0,.516-.535,2.054,2.054,0,0,0,.3-.732h.969a3.227,3.227,0,0,1-.4,1.1,2.973,2.973,0,0,1-.719.822,3.129,3.129,0,0,1-.963.514A3.614,3.614,0,0,1,7.644.109a3.353,3.353,0,0,1-1.82-.5A3.43,3.43,0,0,1,4.57-1.813,4.874,4.874,0,0,1,4.113-4,4.874,4.874,0,0,1,4.57-6.187,3.431,3.431,0,0,1,5.823-7.609a3.353,3.353,0,0,1,1.82-.5,3.614,3.614,0,0,1,1.139.176,3.129,3.129,0,0,1,.963.514,2.984,2.984,0,0,1,.719.82A3.208,3.208,0,0,1,10.863-5.5ZM12.975,0V-8h.969v3.563h4.266V-8h.969V0h-.969V-3.578H13.944V0Zm9.659-8V0h-.969V-8Zm8.831,0V0h-.937L26.169-6.281h-.078V0h-.969V-8h.938l4.375,6.3h.078V-8ZM40.7-4a4.874,4.874,0,0,1-.457,2.187A3.431,3.431,0,0,1,38.992-.391a3.353,3.353,0,0,1-1.82.5,3.353,3.353,0,0,1-1.82-.5A3.431,3.431,0,0,1,34.1-1.813,4.874,4.874,0,0,1,33.641-4,4.874,4.874,0,0,1,34.1-6.187a3.431,3.431,0,0,1,1.254-1.422,3.353,3.353,0,0,1,1.82-.5,3.353,3.353,0,0,1,1.82.5,3.431,3.431,0,0,1,1.254,1.422A4.874,4.874,0,0,1,40.7-4Zm-.937,0a4.007,4.007,0,0,0-.346-1.754,2.536,2.536,0,0,0-.934-1.082A2.431,2.431,0,0,0,37.172-7.2a2.431,2.431,0,0,0-1.314.367,2.536,2.536,0,0,0-.934,1.082A4.007,4.007,0,0,0,34.578-4a4.007,4.007,0,0,0,.346,1.754,2.536,2.536,0,0,0,.934,1.082A2.431,2.431,0,0,0,37.172-.8a2.431,2.431,0,0,0,1.314-.367,2.536,2.536,0,0,0,.934-1.082A4.007,4.007,0,0,0,39.766-4Zm3.112-4h1.156l2.719,6.641h.094L49.566-8h1.156V0h-.906V-6.078h-.078L47.237,0h-.875l-2.5-6.078h-.078V0h-.906Zm11.3,0V0h-.969V-8Zm1.8,0h1.109l2.219,3.734H59.4L61.619-8h1.109L59.837-3.3V0h-.969V-3.3Zm8.066,8H63.028l2.938-8h1L69.9,0H68.887L66.5-6.734h-.062Zm.375-3.125h4.094v.859H64.419ZM78.047-8V0h-.937L72.75-6.281h-.078V0H71.7V-8h.938l4.375,6.3h.078V-8ZM81.5-8V0h-.969V-8Zm6.863,2a1.226,1.226,0,0,0-.57-.922,2.188,2.188,0,0,0-1.227-.328,2.317,2.317,0,0,0-.928.172,1.468,1.468,0,0,0-.617.473,1.126,1.126,0,0,0-.221.684.957.957,0,0,0,.154.549,1.3,1.3,0,0,0,.4.379,2.686,2.686,0,0,0,.508.246q.266.1.488.154l.813.219a7.22,7.22,0,0,1,.7.227,3.309,3.309,0,0,1,.738.393,2.04,2.04,0,0,1,.584.635,1.824,1.824,0,0,1,.23.949A2.115,2.115,0,0,1,89.075-1a2.329,2.329,0,0,1-.984.832,3.618,3.618,0,0,1-1.568.309,3.653,3.653,0,0,1-1.486-.277,2.355,2.355,0,0,1-.984-.773,2.2,2.2,0,0,1-.4-1.152h1a1.236,1.236,0,0,0,.307.748,1.608,1.608,0,0,0,.68.437,2.7,2.7,0,0,0,.889.143,2.6,2.6,0,0,0,1-.182,1.687,1.687,0,0,0,.7-.508,1.2,1.2,0,0,0,.258-.764.938.938,0,0,0-.223-.648,1.634,1.634,0,0,0-.586-.406,6.157,6.157,0,0,0-.785-.273L85.9-3.8a3.666,3.666,0,0,1-1.484-.77,1.69,1.69,0,0,1-.547-1.309,1.942,1.942,0,0,1,.365-1.174,2.417,2.417,0,0,1,.984-.781A3.331,3.331,0,0,1,86.6-8.109a3.269,3.269,0,0,1,1.375.275,2.409,2.409,0,0,1,.955.752A1.875,1.875,0,0,1,89.3-6Zm3.191,6V-8h.969v3.563h4.266V-8h.969V0h-.969V-3.578H92.525V0Zm9.659-8V0h-.969V-8Zm6.131,8V-8h.969v3.563h4.266V-8h.969V0h-.969V-3.578h-4.266V0Zm15.441-4a4.874,4.874,0,0,1-.457,2.187,3.431,3.431,0,0,1-1.254,1.422,3.353,3.353,0,0,1-1.82.5,3.353,3.353,0,0,1-1.82-.5,3.431,3.431,0,0,1-1.254-1.422A4.874,4.874,0,0,1,115.725-4a4.874,4.874,0,0,1,.457-2.187,3.431,3.431,0,0,1,1.254-1.422,3.353,3.353,0,0,1,1.82-.5,3.353,3.353,0,0,1,1.82.5,3.431,3.431,0,0,1,1.254,1.422A4.874,4.874,0,0,1,122.788-4Zm-.937,0a4.007,4.007,0,0,0-.346-1.754,2.536,2.536,0,0,0-.934-1.082,2.431,2.431,0,0,0-1.314-.367,2.431,2.431,0,0,0-1.314.367,2.536,2.536,0,0,0-.934,1.082A4.007,4.007,0,0,0,116.663-4a4.007,4.007,0,0,0,.346,1.754,2.536,2.536,0,0,0,.934,1.082,2.431,2.431,0,0,0,1.314.367,2.431,2.431,0,0,0,1.314-.367,2.536,2.536,0,0,0,.934-1.082A4.007,4.007,0,0,0,121.85-4Zm7.488-2a1.226,1.226,0,0,0-.57-.922,2.188,2.188,0,0,0-1.227-.328,2.317,2.317,0,0,0-.928.172,1.468,1.468,0,0,0-.617.473,1.126,1.126,0,0,0-.221.684.957.957,0,0,0,.154.549,1.3,1.3,0,0,0,.4.379,2.686,2.686,0,0,0,.508.246q.266.1.488.154l.813.219a7.222,7.222,0,0,1,.7.227,3.308,3.308,0,0,1,.738.393,2.04,2.04,0,0,1,.584.635,1.824,1.824,0,0,1,.23.949A2.115,2.115,0,0,1,130.047-1a2.329,2.329,0,0,1-.984.832,3.618,3.618,0,0,1-1.568.309,3.653,3.653,0,0,1-1.486-.277,2.355,2.355,0,0,1-.984-.773,2.2,2.2,0,0,1-.4-1.152h1a1.236,1.236,0,0,0,.307.748,1.608,1.608,0,0,0,.68.437,2.7,2.7,0,0,0,.889.143,2.6,2.6,0,0,0,1-.182,1.687,1.687,0,0,0,.7-.508,1.2,1.2,0,0,0,.258-.764.938.938,0,0,0-.223-.648,1.634,1.634,0,0,0-.586-.406,6.157,6.157,0,0,0-.785-.273l-.984-.281a3.666,3.666,0,0,1-1.484-.77,1.69,1.69,0,0,1-.547-1.309,1.942,1.942,0,0,1,.365-1.174,2.417,2.417,0,0,1,.984-.781,3.331,3.331,0,0,1,1.385-.279,3.269,3.269,0,0,1,1.375.275,2.409,2.409,0,0,1,.955.752A1.875,1.875,0,0,1,130.275-6Zm3.191,6V-8h2.7a3.116,3.116,0,0,1,1.541.338,2.141,2.141,0,0,1,.889.912,2.809,2.809,0,0,1,.289,1.281,2.849,2.849,0,0,1-.287,1.285,2.149,2.149,0,0,1-.885.92,3.057,3.057,0,0,1-1.531.342h-1.937v-.859h1.906A2.084,2.084,0,0,0,136.251-4a1.337,1.337,0,0,0,.568-.6A2.013,2.013,0,0,0,137-5.469a2,2,0,0,0-.178-.859,1.3,1.3,0,0,0-.572-.6,2.173,2.173,0,0,0-1.047-.217h-1.7V0Zm8.5-8V0h-.969V-8Zm2.05.859V-8h6v.859h-2.516V0H145.6V-7.141ZM150.522,0h-1.016l2.938-8h1l2.938,8h-1.016l-2.391-6.734h-.062Zm.375-3.125h4.094v.859H150.9ZM158.181,0V-8h.969V-.859h3.719V0Zm10.381,0V-8h2.7a3.277,3.277,0,0,1,1.539.318,2.054,2.054,0,0,1,.891.873,2.69,2.69,0,0,1,.289,1.262,2.643,2.643,0,0,1-.289,1.254,2.026,2.026,0,0,1-.887.857,3.3,3.3,0,0,1-1.527.311h-2.187V-4h2.156a2.415,2.415,0,0,0,1.033-.188,1.194,1.194,0,0,0,.57-.533,1.787,1.787,0,0,0,.178-.826,1.856,1.856,0,0,0-.18-.84,1.235,1.235,0,0,0-.574-.557,2.345,2.345,0,0,0-1.043-.2h-1.7V0Zm3.766-3.594L174.3,0h-1.125l-1.937-3.594ZM176.144,0V-8h4.828v.859h-3.859v2.7h3.609v.859h-3.609V-.859h3.922V0Zm11.5-6a1.226,1.226,0,0,0-.57-.922,2.188,2.188,0,0,0-1.227-.328,2.317,2.317,0,0,0-.928.172,1.468,1.468,0,0,0-.617.473,1.126,1.126,0,0,0-.221.684.958.958,0,0,0,.154.549,1.3,1.3,0,0,0,.4.379,2.686,2.686,0,0,0,.508.246q.266.1.488.154l.813.219a7.222,7.222,0,0,1,.7.227,3.308,3.308,0,0,1,.738.393,2.04,2.04,0,0,1,.584.635,1.824,1.824,0,0,1,.23.949A2.115,2.115,0,0,1,188.356-1a2.329,2.329,0,0,1-.984.832A3.618,3.618,0,0,1,185.8.141a3.653,3.653,0,0,1-1.486-.277,2.355,2.355,0,0,1-.984-.773,2.2,2.2,0,0,1-.4-1.152h1a1.236,1.236,0,0,0,.307.748,1.608,1.608,0,0,0,.68.437,2.7,2.7,0,0,0,.889.143,2.6,2.6,0,0,0,1-.182,1.687,1.687,0,0,0,.7-.508,1.2,1.2,0,0,0,.258-.764.938.938,0,0,0-.223-.648,1.634,1.634,0,0,0-.586-.406,6.157,6.157,0,0,0-.785-.273l-.984-.281a3.666,3.666,0,0,1-1.484-.77,1.69,1.69,0,0,1-.547-1.309,1.942,1.942,0,0,1,.365-1.174,2.417,2.417,0,0,1,.984-.781,3.331,3.331,0,0,1,1.385-.279,3.269,3.269,0,0,1,1.375.275,2.409,2.409,0,0,1,.955.752A1.875,1.875,0,0,1,188.584-6Zm4.159-2V0h-.969V-8Zm4.956,8h-2.469V-8h2.578a3.918,3.918,0,0,1,1.992.479,3.16,3.16,0,0,1,1.27,1.371,4.771,4.771,0,0,1,.441,2.135,4.8,4.8,0,0,1-.445,2.15,3.159,3.159,0,0,1-1.3,1.383A4.14,4.14,0,0,1,196.763,0Zm-1.5-.859H196.7a3.209,3.209,0,0,0,1.645-.383,2.359,2.359,0,0,0,.973-1.09,4.054,4.054,0,0,0,.32-1.684,4.035,4.035,0,0,0-.316-1.67,2.347,2.347,0,0,0-.945-1.078,3,3,0,0,0-1.566-.377h-1.547ZM202.75,0V-8h4.828v.859h-3.859v2.7h3.609v.859h-3.609V-.859h3.922V0Zm13.472-8V0h-.937l-4.359-6.281h-.078V0h-.969V-8h.938l4.375,6.3h.078V-8Zm2.05.859V-8h6v.859h-2.516V0h-.969V-7.141ZM234.341-6a1.226,1.226,0,0,0-.57-.922,2.188,2.188,0,0,0-1.227-.328,2.317,2.317,0,0,0-.928.172,1.468,1.468,0,0,0-.617.473,1.126,1.126,0,0,0-.221.684.958.958,0,0,0,.154.549,1.3,1.3,0,0,0,.4.379,2.686,2.686,0,0,0,.508.246q.266.1.488.154l.813.219a7.222,7.222,0,0,1,.7.227,3.308,3.308,0,0,1,.738.393,2.04,2.04,0,0,1,.584.635,1.824,1.824,0,0,1,.23.949A2.115,2.115,0,0,1,235.05-1a2.329,2.329,0,0,1-.984.832A3.618,3.618,0,0,1,232.5.141a3.653,3.653,0,0,1-1.486-.277,2.355,2.355,0,0,1-.984-.773,2.2,2.2,0,0,1-.4-1.152h1a1.236,1.236,0,0,0,.307.748,1.608,1.608,0,0,0,.68.437,2.7,2.7,0,0,0,.889.143,2.6,2.6,0,0,0,1-.182,1.687,1.687,0,0,0,.7-.508,1.2,1.2,0,0,0,.258-.764.938.938,0,0,0-.223-.648,1.634,1.634,0,0,0-.586-.406,6.157,6.157,0,0,0-.785-.273l-.984-.281a3.666,3.666,0,0,1-1.484-.77,1.69,1.69,0,0,1-.547-1.309,1.942,1.942,0,0,1,.365-1.174,2.417,2.417,0,0,1,.984-.781,3.331,3.331,0,0,1,1.385-.279,3.269,3.269,0,0,1,1.375.275,2.409,2.409,0,0,1,.955.752A1.875,1.875,0,0,1,235.278-6ZM238.5-8V0h-.969V-8Zm2.05.859V-8h6v.859h-2.516V0h-.969V-7.141ZM248.6,0V-8h4.828v.859h-3.859v2.7h3.609v.859h-3.609V-.859h3.922V0Z" transform="translate(-197 65)" fill="#fff" opacity="0.8"/>
  </g>
</svg>
