<svg xmlns="http://www.w3.org/2000/svg" width="206.609" height="30.294" viewBox="0 0 206.609 30.294">
  <g id="logo" transform="translate(202.207 -20.821)">
    <path id="パス_223" data-name="パス 223" d="M3.568-6.038,1.283-6q-.2,0-.2-.176V-7.928q0-.176.2-.176l2.285.035H14.414L16.708-8.1q.193,0,.193.176v1.749Q16.9-6,16.708-6l-2.294-.035Zm22.657-4.421h4.359l2.373-.035q.149,0,.176.035a.328.328,0,0,1,.026.167l-.035,1.327v1.556l.035,1.345q0,.141-.035.167a.328.328,0,0,1-.167.026l-2.373-.035H29.143q-.431,1.081-.633,1.477h3.6l2.5-.035q.123,0,.149.044a.355.355,0,0,1,.026.176l-.035,1.433v1.3l.035,2.681q0,.185-.176.185H33.089q-.158,0-.185-.035a.36.36,0,0,1-.018-.149V.65H23.993v.6q0,.193-.176.193H22.261q-.176,0-.176-.193l.035-2.707V-2.575l-.035-1.67a.32.32,0,0,1,.035-.193.251.251,0,0,1,.149-.026l2.5.035h1.819a13.948,13.948,0,0,0,.633-1.477h-.993l-2.355.035q-.149,0-.176-.035a.3.3,0,0,1-.026-.158L23.7-7.409V-8.965l-.035-1.327q0-.149.035-.176a.328.328,0,0,1,.167-.026ZM23.993-2.865V-.914h8.895V-2.865ZM31.34-7.3V-9.018H25.487V-7.3Zm2.1-5.977,2.355-.035a.32.32,0,0,1,.193.035.3.3,0,0,1,.026.158l-.035.958v.826l.035,2a.278.278,0,0,1-.035.176.416.416,0,0,1-.185.026H34.329q-.149,0-.176-.035a.328.328,0,0,1-.026-.167v-2.338H22.736v2.355a.278.278,0,0,1-.035.176.3.3,0,0,1-.158.026H21.048q-.149,0-.176-.035a.328.328,0,0,1-.026-.167l.035-2.013v-.686l-.035-1.1q0-.141.035-.167a.328.328,0,0,1,.167-.026l2.373.035h3.92V-13.4a8.4,8.4,0,0,0-.123-1.714q.905,0,1.925.088.272.026.272.185a.6.6,0,0,1-.035.185q-.053.141-.062.176a3.5,3.5,0,0,0-.088,1.063v.141Zm8.919,1.028-2.25.035q-.149,0-.176-.035a.3.3,0,0,1-.026-.158v-1.468q0-.141.035-.167a.328.328,0,0,1,.167-.026l2.25.035H53.426l2.25-.035a.278.278,0,0,1,.176.035.3.3,0,0,1,.026.158v1.468q0,.141-.044.167a.275.275,0,0,1-.158.026l-2.25-.035H50.3V-10.1h1.89l2.461-.035a.278.278,0,0,1,.176.035.328.328,0,0,1,.026.167l-.035,3.217v3.076L54.85.967a.278.278,0,0,1-.035.176.328.328,0,0,1-.167.026H53.118q-.141,0-.167-.044a.275.275,0,0,1-.026-.158V.158H42.844V1.02a.278.278,0,0,1-.035.176.328.328,0,0,1-.167.026H41.112q-.141,0-.167-.035a.328.328,0,0,1-.026-.167L40.954-3.6V-6.319l-.035-3.612q0-.149.035-.176a.3.3,0,0,1,.158-.026l2.47.035h1.547v-2.153Zm.483,3.85v6.829H52.925V-8.4H50.3V-5.88a.484.484,0,0,0,.053.281.6.6,0,0,0,.4.088.707.707,0,0,0,.413-.088,6.354,6.354,0,0,0,.123-1.872,7.677,7.677,0,0,0,.888.4.821.821,0,0,1,.36.2.794.794,0,0,1,.079.422q0,.114-.009.308a2.807,2.807,0,0,1-.562,1.96,2.082,2.082,0,0,1-1.31.343A3.953,3.953,0,0,1,49.1-4.078a.907.907,0,0,1-.448-.466,2.545,2.545,0,0,1-.123-.914V-8.4H46.843a10.264,10.264,0,0,1-.65,3.059A6.134,6.134,0,0,1,44.821-3.3q-.272.272-.4.272T44-3.322a3.976,3.976,0,0,0-1.063-.712,5.155,5.155,0,0,0,1.573-2.013A7.772,7.772,0,0,0,45.041-8.4Zm4.069-1.7H48.53v-2.153H46.913Zm22.6,6.5a6.879,6.879,0,0,1-1.767,2.109,1.151,1.151,0,0,1-.378.255q-.1,0-.378-.36a6.416,6.416,0,0,0-.659-.633V-.809l.035,1.96q0,.2-.185.2H64.762q-.158,0-.185-.044a.275.275,0,0,1-.026-.158l.035-1.96V-5.186L64.551-7.2a.32.32,0,0,1,.035-.193.355.355,0,0,1,.176-.026l2.417.035h1.477q.035-1.046.035-1.547H66.924l-2.452.035q-.176,0-.176-.193v-1.283q0-.193.176-.193l2.452.035h5.511l2.452-.035q.141,0,.167.035a.3.3,0,0,1,.026.158v1.283q0,.141-.035.167a.3.3,0,0,1-.158.026L72.435-8.93H70.326l-.035,1.547h1.67l2.417-.035a.278.278,0,0,1,.176.035.416.416,0,0,1,.026.185l-.035,2.153v2.18L74.6-.536A1.732,1.732,0,0,1,74.158.791a1.461,1.461,0,0,1-.791.325,13.3,13.3,0,0,1-1.617.07q-.167.009-.211.009-.255,0-.325-.114A1.7,1.7,0,0,1,71.082.65,2.792,2.792,0,0,0,70.669-.4q.659.044,1.16.044.193,0,.369-.009a.544.544,0,0,0,.615-.615V-5.854H70.2a7.377,7.377,0,0,1-.167.844,20.075,20.075,0,0,1,2.637,2.18q.105.105.105.167t-.132.193l-.756.853q-.141.149-.193.149t-.149-.114A21.107,21.107,0,0,0,69.517-3.6Zm-.976-2.25H66.336v3.331a5.4,5.4,0,0,0,1.74-1.837A4.529,4.529,0,0,0,68.542-5.854Zm-5.027-5.959v2.988a23.464,23.464,0,0,1-.527,5.616A11.883,11.883,0,0,1,61.115.949q-.211.325-.325.325-.132,0-.36-.308A4.774,4.774,0,0,0,59.392-.044a8.135,8.135,0,0,0,1.942-3.9,11.541,11.541,0,0,0,.229-1.494q-.773.448-1.257.686a1.7,1.7,0,0,0-.554.4.434.434,0,0,1-.29.141q-.158,0-.237-.211-.237-.756-.431-1.661A8.245,8.245,0,0,0,60.183-6.5q.967-.422,1.512-.7.018-.5.018-1.617L61.677-13.3q0-.149.035-.176a.3.3,0,0,1,.158-.026l2.487.035h2.971v-.272a6.868,6.868,0,0,0-.132-1.441q.94.026,1.934.114.29.026.29.158a.791.791,0,0,1-.114.36,2.183,2.183,0,0,0-.088.791v.29h3.56L75.23-13.5q.141,0,.167.035a.3.3,0,0,1,.026.158v1.318a.3.3,0,0,1-.035.185.3.3,0,0,1-.158.026l-2.452-.035Zm-3.375-.229a.877.877,0,0,1,.2-.07q.07,0,.141.123a16.551,16.551,0,0,1,1.046,2.681.575.575,0,0,1,.035.141q0,.105-.22.22l-.914.545a.637.637,0,0,1-.229.088q-.07,0-.114-.167a22.515,22.515,0,0,0-1.011-2.839.4.4,0,0,1-.044-.149q0-.088.149-.158ZM81.258-3.753q.105.009.2.009,1.415,0,1.415-1.266a6.225,6.225,0,0,0-1.6-3.639A24.628,24.628,0,0,0,82.8-12.841H81V-2.654l.035,3.867q0,.185-.193.185H79.421q-.2,0-.2-.185l.035-3.85v-7.8l-.035-3.894q0-.149.035-.176a.328.328,0,0,1,.167-.026l1.441.035h2.355a.875.875,0,0,0,.36-.053.5.5,0,0,1,.229-.053q.2,0,.686.519a1.43,1.43,0,0,1,.431.721.485.485,0,0,1-.158.325,1.271,1.271,0,0,0-.343.7,26.746,26.746,0,0,1-1.389,3.56,7.156,7.156,0,0,1,1.345,2.355,6.121,6.121,0,0,1,.211,1.749,2.268,2.268,0,0,1-2.347,2.514q-.2.018-.272.018-.211,0-.264-.114a1.38,1.38,0,0,1-.07-.422A2.169,2.169,0,0,0,81.258-3.753ZM82.726.035a5.25,5.25,0,0,0,3.261-2.021,6.653,6.653,0,0,0,.861-3.56q-.826.009-1.468.026l-.334.009h-.105a.278.278,0,0,1-.176-.035.3.3,0,0,1-.026-.158V-6.979q0-.158.044-.193a.275.275,0,0,1,.158-.026l2.391.035h4.79l2.4-.035q.141,0,.167.035a.416.416,0,0,1,.026.185V-5.7a.264.264,0,0,1-.031.163.264.264,0,0,1-.163.031l-2.4-.035h-.5v4.359q0,.483.141.589a1.387,1.387,0,0,0,.7.105q.571,0,.738-.22a5.041,5.041,0,0,0,.237-1.9,3.733,3.733,0,0,0,1.2.448.889.889,0,0,1,.387.132.374.374,0,0,1,.07.264q0,.07-.009.2A5.587,5.587,0,0,1,94.8.114a1.433,1.433,0,0,1-.554.677A3.971,3.971,0,0,1,92.1,1.2,3.586,3.586,0,0,1,90.32.932,1.677,1.677,0,0,1,89.8-.536v-5.01H88.667a8.643,8.643,0,0,1-1.116,4.482A6.242,6.242,0,0,1,84.6,1.283a1.7,1.7,0,0,1-.431.141q-.132,0-.4-.36A4.584,4.584,0,0,0,82.726.035Zm8.209-8.657H88.527L86.6-8.587a.278.278,0,0,1-.176-.035A.3.3,0,0,1,86.4-8.78v-.87H85.073a.32.32,0,0,1-.193-.035.3.3,0,0,1-.026-.158l.035-1.7v-.5l-.035-.905q0-.123.044-.149a.355.355,0,0,1,.176-.026l2.408.035h1.1v-.185a9.768,9.768,0,0,0-.123-1.74q.861.018,1.881.141.29.026.29.167a.748.748,0,0,1-.088.334,3.321,3.321,0,0,0-.105,1.063v.22h1.529l2.408-.035a.32.32,0,0,1,.193.035.229.229,0,0,1,.026.141l-.035.773v.633l.035,1.7q0,.141-.044.167a.355.355,0,0,1-.176.026H93.044v.87q0,.141-.035.167a.328.328,0,0,1-.167.026Zm-4.3-2.918v1.318l1.89.035h2.408q1.529,0,1.854-.035V-11.54ZM110.162.272a6.263,6.263,0,0,0,2.487-3.111,12.988,12.988,0,0,0,.6-3.656q-.712.009-1.283.026l-.4.009q-.141,0-.167-.035a.3.3,0,0,1-.026-.158V-8.007a.32.32,0,0,1,.035-.193.3.3,0,0,1,.158-.026l1.714.035v-4.377q-.562.009-1.028.026l-.325.009a.155.155,0,0,1-.176-.176v-1.327q0-.2.176-.2l2.285.035H118.2l2.285-.035q.141,0,.167.035a.328.328,0,0,1,.026.167v1.327q0,.176-.193.176l-.2-.009q-.606-.018-1.31-.026v4.377l1.96-.035q.141,0,.167.044a.355.355,0,0,1,.026.176v1.354a.264.264,0,0,1-.031.163.264.264,0,0,1-.163.031l-.255-.009q-.765-.018-1.705-.026v5.168L119,1.116a.278.278,0,0,1-.035.176.328.328,0,0,1-.167.026h-1.494q-.176,0-.176-.2l.018-2.443V-6.5h-2.065a15.149,15.149,0,0,1-.6,4,8.2,8.2,0,0,1-2.338,3.612q-.264.29-.378.29-.1,0-.413-.325A4.223,4.223,0,0,0,110.162.272Zm4.957-8.464h2.03v-4.377h-2.03Zm-6.126-4.069h-.36a17.186,17.186,0,0,1-1.055,3.744H109.3l1.292-.035a.278.278,0,0,1,.176.035.328.328,0,0,1,.026.167l-.035,2.426v1.8l.035,3.19a.31.31,0,0,1-.031.176q-.031.035-.171.035h-1.2q-.141,0-.167-.035a.387.387,0,0,1-.026-.176v-.439h-1.564V.141q0,.141-.035.171a.334.334,0,0,1-.185.031h-1.2a.3.3,0,0,1-.185-.035A.328.328,0,0,1,106,.141l.035-3.252V-5.6q-.369.519-.791,1.055-.2.255-.325.255-.149,0-.2-.343a5.3,5.3,0,0,0-.466-1.547,11.408,11.408,0,0,0,2.646-6.082h-.105l-1.837.035a.278.278,0,0,1-.176-.035.3.3,0,0,1-.026-.158v-1.318q0-.141.044-.167a.275.275,0,0,1,.158-.026l1.837.035h2.206l1.837-.035q.141,0,.167.035a.3.3,0,0,1,.026.158v1.318q0,.141-.035.167a.3.3,0,0,1-.158.026Zm.2,5.326h-1.564v4H109.2ZM130.3-7.8a15.417,15.417,0,0,0,3.691-1.292,8.223,8.223,0,0,1-1.441-1.767q-.369.448-.844.958-.316.29-.4.29-.105,0-.378-.325a3.16,3.16,0,0,0-.756-.668v6.645l.035,2.461a.334.334,0,0,1-.031.185q-.031.035-.171.035h-1.389q-.141,0-.167-.044a.355.355,0,0,1-.026-.176l.035-2.461V-9.738a17.74,17.74,0,0,0-.132-2.32q.914.026,1.793.123.308.035.308.22,0,.009-.149.4a2.374,2.374,0,0,0-.088.633,10.361,10.361,0,0,0,2.373-3.349,4.538,4.538,0,0,0,.343-1.1q.773.149,1.582.378.22.062.22.211a.391.391,0,0,1-.149.272,2.759,2.759,0,0,0-.334.6l-.237.466h4l2.118-.035q.185,0,.185.176v1.151a.32.32,0,0,1-.035.193.279.279,0,0,1-.149.026l-.4-.009q-.422-.018-.94-.026a8.839,8.839,0,0,1-2,2.628,13.671,13.671,0,0,0,4.052,1.336,3.715,3.715,0,0,0-.571,1.151q-.176.5-.325.5a1.823,1.823,0,0,1-.4-.088,15.816,15.816,0,0,1-4.184-1.837,15.661,15.661,0,0,1-3.665,1.6,1.915,1.915,0,0,1-.378.088q-.185,0-.378-.448A3.522,3.522,0,0,0,130.3-7.8Zm6.592-3.937h-3.138a8.188,8.188,0,0,0,1.626,1.749A6.884,6.884,0,0,0,136.889-11.733ZM123.582-8.1a17.069,17.069,0,0,0,3.261-5.739,6.8,6.8,0,0,0,.29-1.257,10.428,10.428,0,0,1,1.688.5q.272.1.272.272a.43.43,0,0,1-.185.308,2.333,2.333,0,0,0-.36.756,24.6,24.6,0,0,1-1.072,2.593v9.141l.035,2.733q0,.141-.044.176a.275.275,0,0,1-.158.026h-1.441q-.141,0-.167-.035a.328.328,0,0,1-.026-.167l.035-2.733v-3.9q0-1.538.018-2.347-.483.642-1.028,1.292-.229.255-.325.255-.114,0-.193-.325A4.842,4.842,0,0,0,123.582-8.1Zm6.583,7.963a17.413,17.413,0,0,0,5.01-1.477,13.842,13.842,0,0,0,3.094-2.092,3.886,3.886,0,0,0,.642-.791,9.318,9.318,0,0,1,1.371.958q.167.132.167.246,0,.149-.2.237a3.174,3.174,0,0,0-.571.413,17.351,17.351,0,0,1-3.621,2.5A18.441,18.441,0,0,1,131.677,1.3a2.359,2.359,0,0,1-.4.053q-.176,0-.343-.36A4.146,4.146,0,0,0,130.165-.141Zm.633-2.646A15.916,15.916,0,0,0,134.173-3.9a12.715,12.715,0,0,0,2.109-1.3,3.3,3.3,0,0,0,.668-.721,11.02,11.02,0,0,1,1.336.844.3.3,0,0,1,.149.237.214.214,0,0,1-.167.22,2.157,2.157,0,0,0-.65.4,15.491,15.491,0,0,1-5.309,2.681,1.825,1.825,0,0,1-.431.105q-.141,0-.325-.343A3.476,3.476,0,0,0,130.8-2.786Zm4.192-4.5a10.524,10.524,0,0,1,1.327.791.265.265,0,0,1,.149.211q0,.141-.2.2a2.109,2.109,0,0,0-.589.308,13.259,13.259,0,0,1-3.744,1.837,2.362,2.362,0,0,1-.422.088q-.149,0-.316-.325a4.4,4.4,0,0,0-.738-.905,12.316,12.316,0,0,0,3.867-1.582A2.734,2.734,0,0,0,134.99-7.286Zm11.257-5.309V-1.1h10.617l2.47-.035q.141,0,.167.035a.328.328,0,0,1,.026.167V.492q0,.141-.035.167a.3.3,0,0,1-.158.026L156.865.65H146.248v.58q0,.141-.035.167a.416.416,0,0,1-.185.026H144.5a.264.264,0,0,1-.163-.031.264.264,0,0,1-.031-.163l.035-3.823V-10.38l-.035-3.8q0-.149.035-.176a.328.328,0,0,1,.167-.026l2.391.035h9.9l2.355-.035q.149,0,.176.035a.3.3,0,0,1,.026.158v1.433q0,.141-.035.167a.328.328,0,0,1-.167.026l-2.355-.035Zm3.516,6.636-2.47.035a.278.278,0,0,1-.176-.035.3.3,0,0,1-.026-.158V-7.33q0-.176.2-.176l2.47.035h1.96a13.685,13.685,0,0,0,.158-1.837H149.9a10.367,10.367,0,0,1-.94,1.169q-.255.29-.4.29-.114,0-.448-.308a4.328,4.328,0,0,0-.967-.65,9.85,9.85,0,0,0,2.03-2.514,4.947,4.947,0,0,0,.431-1.151,11.045,11.045,0,0,1,1.582.413q.237.088.237.229a.356.356,0,0,1-.158.255,1.448,1.448,0,0,0-.308.5,1.268,1.268,0,0,1-.132.237h4.43l2.268-.035a.278.278,0,0,1,.176.035.3.3,0,0,1,.026.158v1.2a.3.3,0,0,1-.035.185.328.328,0,0,1-.167.026l-2.268-.035h-1.582a14.8,14.8,0,0,1-.158,1.837h2.566l2.47-.035q.158,0,.185.035t.035.141v1.213q0,.141-.044.167a.355.355,0,0,1-.176.026l-2.47-.035h-1.978a8.244,8.244,0,0,0,4.966,2.786,7.23,7.23,0,0,0-.756,1.248q-.149.4-.316.4a2.362,2.362,0,0,1-.422-.088A8.425,8.425,0,0,1,152.8-5.045a7.364,7.364,0,0,1-4.447,3.428,2.949,2.949,0,0,1-.431.123q-.149,0-.343-.4a3.674,3.674,0,0,0-.853-1.081A10.644,10.644,0,0,0,149.842-4.3a4.217,4.217,0,0,0,1.433-1.661Z" transform="translate(-203 36)" fill="#fff"/>
    <path id="パス_222" data-name="パス 222" d="M1.585-6.545V0H.793V-6.545ZM8.888-4.5H8.095a1.664,1.664,0,0,0-.244-.6,1.7,1.7,0,0,0-.422-.436A1.833,1.833,0,0,0,6.88-5.8a2.183,2.183,0,0,0-.626-.089,1.989,1.989,0,0,0-1.075.3,2.075,2.075,0,0,0-.764.885,3.279,3.279,0,0,0-.283,1.435,3.279,3.279,0,0,0,.283,1.435,2.075,2.075,0,0,0,.764.885,1.989,1.989,0,0,0,1.075.3A2.183,2.183,0,0,0,6.88-.741a1.833,1.833,0,0,0,.548-.267,1.685,1.685,0,0,0,.422-.438,1.68,1.68,0,0,0,.244-.6h.793a2.64,2.64,0,0,1-.326.9,2.433,2.433,0,0,1-.588.673,2.56,2.56,0,0,1-.788.42,2.957,2.957,0,0,1-.932.144A2.743,2.743,0,0,1,4.765-.32,2.807,2.807,0,0,1,3.739-1.483a3.988,3.988,0,0,1-.374-1.79,3.988,3.988,0,0,1,.374-1.79A2.807,2.807,0,0,1,4.765-6.226a2.743,2.743,0,0,1,1.489-.409,2.957,2.957,0,0,1,.932.144,2.56,2.56,0,0,1,.788.42,2.441,2.441,0,0,1,.588.671A2.625,2.625,0,0,1,8.888-4.5ZM10.616,0V-6.545h.793v2.915H14.9V-6.545h.793V0H14.9V-2.928h-3.49V0Zm7.9-6.545V0h-.793V-6.545Zm7.226,0V0h-.767L21.411-5.139h-.064V0h-.793V-6.545h.767L24.9-1.393h.064V-6.545ZM33.3-3.273a3.988,3.988,0,0,1-.374,1.79A2.807,2.807,0,0,1,31.9-.32a2.743,2.743,0,0,1-1.489.409A2.743,2.743,0,0,1,28.924-.32,2.807,2.807,0,0,1,27.9-1.483a3.988,3.988,0,0,1-.374-1.79,3.988,3.988,0,0,1,.374-1.79,2.807,2.807,0,0,1,1.026-1.163,2.743,2.743,0,0,1,1.489-.409,2.743,2.743,0,0,1,1.489.409,2.807,2.807,0,0,1,1.026,1.163A3.988,3.988,0,0,1,33.3-3.273Zm-.767,0a3.279,3.279,0,0,0-.283-1.435,2.075,2.075,0,0,0-.764-.885,1.989,1.989,0,0,0-1.075-.3,1.989,1.989,0,0,0-1.075.3,2.075,2.075,0,0,0-.764.885,3.279,3.279,0,0,0-.283,1.435,3.279,3.279,0,0,0,.283,1.435,2.075,2.075,0,0,0,.764.885,1.989,1.989,0,0,0,1.075.3,1.989,1.989,0,0,0,1.075-.3,2.075,2.075,0,0,0,.764-.885A3.279,3.279,0,0,0,32.536-3.273Zm2.547-3.273h.946l2.224,5.433h.077l2.224-5.433H41.5V0h-.741V-4.973h-.064L38.649,0h-.716L35.888-4.973h-.064V0h-.741Zm9.245,0V0h-.793V-6.545Zm1.473,0h.908L48.523-3.49H48.6l1.815-3.055h.908L48.958-2.7V0h-.793V-2.7ZM52.4,0h-.831l2.4-6.545h.818L57.193,0h-.831L54.407-5.51h-.051Zm.307-2.557h3.349v.7H52.706Zm11.15-3.989V0h-.767L59.523-5.139h-.064V0h-.793V-6.545h.767l3.58,5.152h.064V-6.545Zm2.828,0V0h-.793V-6.545ZM72.3-4.909a1,1,0,0,0-.467-.754,1.79,1.79,0,0,0-1-.268,1.9,1.9,0,0,0-.759.141,1.2,1.2,0,0,0-.5.387.921.921,0,0,0-.181.559.783.783,0,0,0,.126.449,1.062,1.062,0,0,0,.324.31,2.2,2.2,0,0,0,.415.2q.217.078.4.126l.665.179a5.909,5.909,0,0,1,.57.185,2.707,2.707,0,0,1,.6.321,1.669,1.669,0,0,1,.478.519,1.493,1.493,0,0,1,.189.777,1.73,1.73,0,0,1-.276.959,1.905,1.905,0,0,1-.805.681,2.96,2.96,0,0,1-1.283.252,2.989,2.989,0,0,1-1.216-.227,1.927,1.927,0,0,1-.805-.633,1.8,1.8,0,0,1-.331-.943h.818a1.012,1.012,0,0,0,.251.612,1.316,1.316,0,0,0,.556.358,2.209,2.209,0,0,0,.727.117,2.125,2.125,0,0,0,.815-.149,1.38,1.38,0,0,0,.572-.415.978.978,0,0,0,.211-.625.768.768,0,0,0-.182-.531,1.337,1.337,0,0,0-.479-.332,5.038,5.038,0,0,0-.642-.224l-.805-.23a3,3,0,0,1-1.214-.63,1.383,1.383,0,0,1-.447-1.071,1.589,1.589,0,0,1,.3-.96,1.978,1.978,0,0,1,.805-.639,2.725,2.725,0,0,1,1.133-.229,2.675,2.675,0,0,1,1.125.225,1.971,1.971,0,0,1,.781.615,1.534,1.534,0,0,1,.305.885ZM74.91,0V-6.545H75.7v2.915h3.49V-6.545h.793V0h-.793V-2.928H75.7V0Zm7.9-6.545V0H82.02V-6.545ZM87.829,0V-6.545h.793v2.915h3.49V-6.545H92.9V0h-.793V-2.928h-3.49V0Zm12.633-3.273a3.988,3.988,0,0,1-.374,1.79A2.807,2.807,0,0,1,99.063-.32a2.743,2.743,0,0,1-1.489.409A2.743,2.743,0,0,1,96.084-.32a2.807,2.807,0,0,1-1.026-1.163,3.988,3.988,0,0,1-.374-1.79,3.988,3.988,0,0,1,.374-1.79,2.807,2.807,0,0,1,1.026-1.163,2.743,2.743,0,0,1,1.489-.409,2.743,2.743,0,0,1,1.489.409,2.807,2.807,0,0,1,1.026,1.163A3.988,3.988,0,0,1,100.463-3.273Zm-.767,0a3.279,3.279,0,0,0-.283-1.435,2.075,2.075,0,0,0-.764-.885,1.989,1.989,0,0,0-1.075-.3,1.989,1.989,0,0,0-1.075.3,2.075,2.075,0,0,0-.764.885,3.279,3.279,0,0,0-.283,1.435,3.279,3.279,0,0,0,.283,1.435,2.075,2.075,0,0,0,.764.885,1.989,1.989,0,0,0,1.075.3,1.989,1.989,0,0,0,1.075-.3,2.075,2.075,0,0,0,.764-.885A3.279,3.279,0,0,0,99.7-3.273Zm6.126-1.636a1,1,0,0,0-.467-.754,1.79,1.79,0,0,0-1-.268,1.9,1.9,0,0,0-.759.141,1.2,1.2,0,0,0-.5.387.921.921,0,0,0-.181.559.783.783,0,0,0,.126.449,1.062,1.062,0,0,0,.324.31,2.2,2.2,0,0,0,.415.2q.217.078.4.126l.665.179a5.909,5.909,0,0,1,.57.185,2.707,2.707,0,0,1,.6.321,1.669,1.669,0,0,1,.478.519,1.493,1.493,0,0,1,.189.777,1.73,1.73,0,0,1-.276.959,1.905,1.905,0,0,1-.805.681,2.96,2.96,0,0,1-1.283.252A2.989,2.989,0,0,1,103.1-.112a1.927,1.927,0,0,1-.805-.633,1.8,1.8,0,0,1-.331-.943h.818a1.012,1.012,0,0,0,.251.612,1.316,1.316,0,0,0,.556.358,2.209,2.209,0,0,0,.727.117,2.125,2.125,0,0,0,.815-.149,1.38,1.38,0,0,0,.572-.415.978.978,0,0,0,.211-.625.768.768,0,0,0-.182-.531,1.337,1.337,0,0,0-.479-.332,5.038,5.038,0,0,0-.642-.224l-.805-.23a3,3,0,0,1-1.214-.63,1.383,1.383,0,0,1-.447-1.071,1.589,1.589,0,0,1,.3-.96,1.978,1.978,0,0,1,.805-.639,2.725,2.725,0,0,1,1.133-.229,2.675,2.675,0,0,1,1.125.225,1.971,1.971,0,0,1,.781.615,1.534,1.534,0,0,1,.305.885ZM108.432,0V-6.545h2.212a2.549,2.549,0,0,1,1.261.276,1.752,1.752,0,0,1,.727.746,2.3,2.3,0,0,1,.237,1.048,2.331,2.331,0,0,1-.235,1.051,1.758,1.758,0,0,1-.724.753,2.5,2.5,0,0,1-1.253.28h-1.585v-.7h1.56a1.7,1.7,0,0,0,.847-.182,1.094,1.094,0,0,0,.465-.494,1.647,1.647,0,0,0,.145-.7,1.637,1.637,0,0,0-.145-.7,1.066,1.066,0,0,0-.468-.487,1.778,1.778,0,0,0-.857-.177h-1.393V0Zm6.957-6.545V0H114.6V-6.545Zm1.677.7v-.7h4.909v.7h-2.058V0h-.793V-5.842ZM123.154,0h-.831l2.4-6.545h.818L127.948,0h-.831l-1.956-5.51h-.051Zm.307-2.557h3.349v.7h-3.349ZM129.421,0V-6.545h.793V-.7h3.043V0Zm8.494,0V-6.545h2.212a2.681,2.681,0,0,1,1.259.26,1.681,1.681,0,0,1,.729.714,2.2,2.2,0,0,1,.237,1.032,2.162,2.162,0,0,1-.237,1.026,1.658,1.658,0,0,1-.725.7,2.7,2.7,0,0,1-1.25.254h-1.79v-.716h1.764a1.976,1.976,0,0,0,.845-.153.977.977,0,0,0,.467-.436,1.462,1.462,0,0,0,.145-.676,1.518,1.518,0,0,0-.147-.687,1.01,1.01,0,0,0-.47-.455,1.918,1.918,0,0,0-.853-.161h-1.393V0ZM141-2.94,142.607,0h-.92L140.1-2.94ZM144.118,0V-6.545h3.95v.7H144.91v2.212h2.953v.7H144.91V-.7h3.209V0Zm9.412-4.909a1,1,0,0,0-.467-.754,1.79,1.79,0,0,0-1-.268,1.9,1.9,0,0,0-.759.141,1.2,1.2,0,0,0-.5.387.921.921,0,0,0-.181.559.783.783,0,0,0,.126.449,1.062,1.062,0,0,0,.324.31,2.2,2.2,0,0,0,.415.2q.217.078.4.126l.665.179a5.908,5.908,0,0,1,.57.185,2.707,2.707,0,0,1,.6.321,1.669,1.669,0,0,1,.478.519,1.493,1.493,0,0,1,.189.777,1.73,1.73,0,0,1-.276.959,1.905,1.905,0,0,1-.805.681,2.96,2.96,0,0,1-1.283.252A2.989,2.989,0,0,1,150.8-.112,1.927,1.927,0,0,1,150-.745a1.8,1.8,0,0,1-.331-.943h.818a1.012,1.012,0,0,0,.251.612,1.316,1.316,0,0,0,.556.358,2.209,2.209,0,0,0,.727.117,2.125,2.125,0,0,0,.815-.149,1.38,1.38,0,0,0,.572-.415.978.978,0,0,0,.211-.625.768.768,0,0,0-.182-.531,1.337,1.337,0,0,0-.479-.332,5.037,5.037,0,0,0-.642-.224l-.805-.23a3,3,0,0,1-1.214-.63,1.383,1.383,0,0,1-.447-1.071,1.589,1.589,0,0,1,.3-.96,1.977,1.977,0,0,1,.805-.639,2.725,2.725,0,0,1,1.133-.229,2.675,2.675,0,0,1,1.125.225,1.971,1.971,0,0,1,.781.615,1.534,1.534,0,0,1,.305.885Zm3.4-1.636V0h-.793V-6.545ZM160.988,0h-2.02V-6.545h2.109a3.206,3.206,0,0,1,1.63.392,2.585,2.585,0,0,1,1.039,1.122,3.9,3.9,0,0,1,.361,1.747,3.931,3.931,0,0,1-.364,1.759,2.585,2.585,0,0,1-1.061,1.131A3.388,3.388,0,0,1,160.988,0ZM159.76-.7h1.176a2.625,2.625,0,0,0,1.346-.313,1.93,1.93,0,0,0,.8-.892,3.318,3.318,0,0,0,.262-1.377,3.3,3.3,0,0,0-.259-1.366,1.92,1.92,0,0,0-.773-.882,2.455,2.455,0,0,0-1.282-.308H159.76Zm6.126.7V-6.545h3.95v.7h-3.158v2.212h2.953v.7h-2.953V-.7h3.209V0Zm11.022-6.545V0h-.767l-3.567-5.139h-.064V0h-.793V-6.545h.767l3.58,5.152h.064V-6.545Zm1.677.7v-.7H183.5v.7h-2.058V0h-.793V-5.842Zm13.147.933a1,1,0,0,0-.467-.754,1.79,1.79,0,0,0-1-.268,1.9,1.9,0,0,0-.759.141,1.2,1.2,0,0,0-.5.387.921.921,0,0,0-.181.559.783.783,0,0,0,.126.449,1.062,1.062,0,0,0,.324.31,2.2,2.2,0,0,0,.415.2q.217.078.4.126l.665.179a5.908,5.908,0,0,1,.57.185,2.707,2.707,0,0,1,.6.321,1.669,1.669,0,0,1,.478.519,1.493,1.493,0,0,1,.189.777,1.73,1.73,0,0,1-.276.959,1.905,1.905,0,0,1-.805.681,2.96,2.96,0,0,1-1.283.252,2.989,2.989,0,0,1-1.216-.227,1.927,1.927,0,0,1-.805-.633,1.8,1.8,0,0,1-.331-.943h.818a1.012,1.012,0,0,0,.251.612,1.316,1.316,0,0,0,.556.358,2.209,2.209,0,0,0,.727.117,2.125,2.125,0,0,0,.815-.149,1.38,1.38,0,0,0,.572-.415.978.978,0,0,0,.211-.625.768.768,0,0,0-.182-.531,1.337,1.337,0,0,0-.479-.332,5.037,5.037,0,0,0-.642-.224l-.805-.23a3,3,0,0,1-1.214-.63,1.383,1.383,0,0,1-.447-1.071,1.589,1.589,0,0,1,.3-.96,1.977,1.977,0,0,1,.805-.639,2.725,2.725,0,0,1,1.133-.229,2.675,2.675,0,0,1,1.125.225,1.971,1.971,0,0,1,.781.615,1.534,1.534,0,0,1,.305.885Zm3.4-1.636V0h-.793V-6.545Zm1.677.7v-.7h4.909v.7h-2.058V0h-.793V-5.842ZM203.4,0V-6.545h3.95v.7h-3.158v2.212h2.953v.7h-2.953V-.7H207.4V0Z" transform="translate(-203 51)" fill="#fff" opacity="0.8"/>
  </g>
</svg>
