<svg xmlns="http://www.w3.org/2000/svg" xmlns:xlink="http://www.w3.org/1999/xlink" width="164.348" height="54" viewBox="0 0 164.348 54">
  <defs>
    <clipPath id="clip-path">
      <rect id="長方形_1020" data-name="長方形 1020" width="164.348" height="54" fill="#fff"/>
    </clipPath>
  </defs>
  <g id="logo" transform="translate(-90 -113)">
    <g id="マスクグループ_3" data-name="マスクグループ 3" transform="translate(90 113)" clip-path="url(#clip-path)">
      <g id="logo-2" data-name="logo" transform="translate(0.167 1.444)">
        <path id="パス_323" data-name="パス 323" d="M1.148-11.337v4.064h29v-4.064ZM55.8,1.263H41.933V-1.95H55.8ZM43.982-12.912h9.172v2.772H43.982Zm6.745,5.764h6.115v-8.726H40.452v8.726H46.6c-.032.63-.095,1.323-.158,1.953H38.183V5.61h3.751V4.445H55.8V5.579h3.877V-5.194H50.191ZM50.475-21.1v-2.615H46.567V-21.1H35.251v7.875h3.656V-17.7h19.51v4.473h3.845V-21.1Zm32.653,6.142H79.945v-3.434h3.183Zm7.848,6.993a6.1,6.1,0,0,1-1.292-.693c-.063,1.418-.189,1.638-.725,1.638H87.352c-.6,0-.693-.095-.693-.913v-3.591h4.318ZM72.57.35V-4.123a12.739,12.739,0,0,1,2.08,1.984,9.451,9.451,0,0,0,5.3-9.04v-.346H83.1V-7.9c0,3.119.6,4.158,3.656,4.158H89.4A3.941,3.941,0,0,0,90.976-4V.35Zm3.877-11.875v.283c0,2.111-.5,4.5-3.877,6.363v-6.646Zm19.416-6.867v-3.591H67.684v3.591h8.573v3.434H68.945V5.579H72.57v-1.8H90.976V5.516H94.79V-14.959H86.848v-3.434ZM124.828-1.068A58.564,58.564,0,0,0,120.352-5.1c.095-.41.158-.851.221-1.26h4.255ZM113.67-6.36h3.625a6.715,6.715,0,0,1-3.625,5.229Zm-4-5.418h7.754V-9.51h-7.092V5.7h3.341V-.123a10.64,10.64,0,0,1,1.418,1.7,10.454,10.454,0,0,0,4.129-3.843,32.359,32.359,0,0,1,3.625,3.685l1.986-1.8V1.988c0,.346-.126.473-.536.473-.378.031-1.765.031-3.026-.032a11.2,11.2,0,0,1,1.2,3.245,10.041,10.041,0,0,0,4.507-.6c1.135-.536,1.45-1.418,1.45-3.024V-9.51H120.7v-2.268h8.573v-3.15h-19.6Zm8.731-8.6v-3.307h-3.971v3.307h-9.456v7.5a25.388,25.388,0,0,0-2.112-4.914l-2.711,1.323a27.345,27.345,0,0,1,2.143,6.016l2.679-1.417v.85c0,.945,0,1.921-.063,2.93-1.891.945-3.719,1.8-5.011,2.362L100.968-2.2c1.135-.63,2.3-1.323,3.467-2.016A14.463,14.463,0,0,1,100.81,3.09a15.322,15.322,0,0,1,2.679,2.489c4.35-4.316,5.075-11.529,5.075-16.569v-6.016h20.9v-3.371Zm40.533,5.859h-11.41V-17.1h11.41ZM144.18-20.283v6.205h2.332v2.772H159.94v-2.8h2.427v-6.174h-7.533V-23.59h-3.625v3.308Zm-2.238-2.237-.536.158h-6.84V5.7h3.246V-19.023h2.458c-.5,2.142-1.166,4.883-1.8,6.867a8.428,8.428,0,0,1,2.175,5.512c0,.882-.126,1.512-.473,1.764a1.633,1.633,0,0,1-.883.283c-.378,0-.82,0-1.387-.032a7.938,7.938,0,0,1,.819,3.181,13.329,13.329,0,0,0,2.017-.063,4.5,4.5,0,0,0,1.828-.661c.977-.693,1.387-2.016,1.387-4.032a9.694,9.694,0,0,0-2.3-6.331c.883-2.457,1.923-5.891,2.742-8.568ZM157.985,2.114c-.441,0-.5-.094-.5-1.008V-5.7h4.728V-9.037H144.653V-5.7h3.467c-.315,4.378-1.261,6.93-6.3,8.442A9.105,9.105,0,0,1,143.8,5.673C149.948,3.626,151.272,0,151.65-5.7h2.332V1.137c0,3.213.6,4.284,3.341,4.284h2.112c2.238,0,3.057-1.2,3.372-5.607a9.64,9.64,0,0,1-3.12-1.386c-.063,3.213-.158,3.685-.662,3.685Z" transform="translate(-1.148 23.716)" fill="#fff"/>
        <path id="パス_322" data-name="パス 322" d="M3.957-6.806v-.427H.49v.427l1.148.124c.023,1.08.023,2.171.023,3.274V-2.8c0,1.1,0,2.182-.023,3.262L.49.585v.428H3.957V.585L2.809.45C2.786-.63,2.786-1.721,2.786-2.8v-.607c0-1.1,0-2.2.023-3.274ZM10.587-.45A2.05,2.05,0,0,1,8.865.484C7.683.484,6.828-.416,6.828-2s.765-2.52,1.891-2.52a2.161,2.161,0,0,1,.664.113l.236.866a.617.617,0,0,0,.653.574.507.507,0,0,0,.54-.45A2.1,2.1,0,0,0,8.651-5a2.916,2.916,0,0,0-2.882,3.1A2.747,2.747,0,0,0,8.55,1.17,2.256,2.256,0,0,0,10.835-.338Zm7.756.945c-.011-.619-.023-1.474-.023-2.07v-1.17c0-1.609-.54-2.25-1.587-2.25a3.167,3.167,0,0,0-2.251,1.159V-6.255l.034-1.755-.158-.09-1.869.517v.371l1,.09v5.546c0,.574-.011,1.44-.023,2.07L12.546.63v.383h2.837V.63L14.527.495c-.011-.63-.023-1.5-.023-2.07V-3.4a2.516,2.516,0,0,1,1.767-.821c.7,0,1.036.36,1.036,1.5v1.147c0,.6-.011,1.451-.023,2.07L16.362.63v.383H19.2V.63Zm4.142-6.9a.771.771,0,0,0,.788-.765.755.755,0,0,0-.788-.754.751.751,0,0,0-.8.754A.767.767,0,0,0,22.486-6.4Zm.54,6.9C23.015-.135,23-1,23-1.575V-3.229l.023-1.642-.169-.113-1.891.664v.371l1,.09c.023.54.034.945.034,1.631v.653C22-1,21.99-.135,21.979.495L21.033.63v.383H23.87V.63Zm8.521,0c-.011-.619-.023-1.474-.023-2.07V-2.756C31.525-4.343,31-5,29.949-5a3.151,3.151,0,0,0-2.218,1.136l-.1-1.012-.169-.113-1.734.675v.371l.979.1c.023.5.034.923.034,1.62v.641c0,.574-.011,1.44-.023,2.07L25.806.63v.383h2.837V.63L27.788.495c-.011-.63-.023-1.5-.023-2.07V-3.4a2.533,2.533,0,0,1,1.722-.821c.72,0,1.024.383,1.024,1.5v1.147c0,.6-.011,1.451-.023,2.07L29.577.63v.383h2.837V.63Zm5.628.675a2.821,2.821,0,0,0,2.837-3.06A2.861,2.861,0,0,0,37.176-5a2.853,2.853,0,0,0-2.825,3.1A2.814,2.814,0,0,0,37.176,1.17Zm0-.472c-1.081,0-1.7-.889-1.7-2.587s.619-2.632,1.7-2.632,1.7.922,1.7,2.632S38.245.7,37.176.7Zm14.262-.2c-.011-.619-.023-1.474-.023-2.07V-2.858C51.415-4.376,50.841-5,49.839-5a2.894,2.894,0,0,0-2.229,1.159A1.371,1.371,0,0,0,46.147-5,3.022,3.022,0,0,0,44-3.87l-.1-1-.169-.113-1.734.675v.371l.979.1c.034.5.034.923.034,1.62v.641c0,.574-.011,1.44-.023,2.07L42.072.63v.383h2.837V.63L44.053.495c-.011-.63-.023-1.5-.023-2.07V-3.4a2.43,2.43,0,0,1,1.677-.81c.7,0,1.013.371,1.013,1.5v1.136c0,.6-.011,1.451-.023,2.07L45.764.63v.383H48.6V.63L47.757.495c-.023-.619-.034-1.474-.034-2.07V-2.756a5.321,5.321,0,0,0-.034-.63,2.5,2.5,0,0,1,1.689-.821c.709,0,1.036.326,1.036,1.474v1.159c0,.6-.011,1.451-.023,2.07L49.479.63v.383H52.3V.63ZM55.58-6.4a.771.771,0,0,0,.788-.765.755.755,0,0,0-.788-.754.751.751,0,0,0-.8.754A.767.767,0,0,0,55.58-6.4Zm.54,6.9c-.011-.63-.023-1.5-.023-2.07V-3.229l.023-1.642-.169-.113-1.891.664v.371l1,.09c.023.54.034.945.034,1.631v.653c0,.574-.011,1.44-.023,2.07L54.128.63v.383h2.837V.63Zm8.431-5.321H62.165v.383l1.114.124L61.726.056,60.105-4.331l1.069-.113v-.383H58.248v.383l.7.09,2.3,5.726-.056.135a4.075,4.075,0,0,1-1.193,1.834l-.09-.09A1.244,1.244,0,0,0,59,2.8a.739.739,0,0,0-.788.506c0,.461.518.776,1.1.776.9,0,1.677-.832,2.476-2.947l2.071-5.467.687-.113ZM69.381-.27c-.687.54-.968.72-1.407.72a.894.894,0,0,1-1-.956c0-.45.191-.934,1.272-1.35.27-.1.7-.247,1.137-.371ZM71.34.281a.635.635,0,0,1-.5.3c-.281,0-.45-.2-.45-.787V-2.88C70.394-4.41,69.775-5,68.48-5a2.194,2.194,0,0,0-2.386,1.519A.49.49,0,0,0,66.646-3c.315,0,.518-.191.619-.574l.236-.844a2.75,2.75,0,0,1,.7-.1c.833,0,1.182.315,1.182,1.53v.382a12.021,12.021,0,0,0-1.418.405c-1.61.574-2.037,1.114-2.037,1.867A1.481,1.481,0,0,0,67.557,1.17,2.469,2.469,0,0,0,69.4.18a1.064,1.064,0,0,0,1.1.967,1.157,1.157,0,0,0,1.058-.63Zm7.508.214c-.011-.619-.023-1.474-.023-2.07V-2.756C78.825-4.343,78.3-5,77.249-5a3.151,3.151,0,0,0-2.218,1.136l-.1-1.012-.169-.113-1.734.675v.371l.979.1c.023.5.034.923.034,1.62v.641c0,.574-.011,1.44-.023,2.07L73.107.63v.383h2.837V.63L75.088.495c-.011-.63-.023-1.5-.023-2.07V-3.4a2.533,2.533,0,0,1,1.722-.821c.72,0,1.024.383,1.024,1.5v1.147c0,.6-.011,1.451-.023,2.07L76.878.63v.383h2.837V.63ZM82.99-6.4a.771.771,0,0,0,.788-.765.755.755,0,0,0-.788-.754.751.751,0,0,0-.8.754A.767.767,0,0,0,82.99-6.4Zm.54,6.9c-.011-.63-.023-1.5-.023-2.07V-3.229l.023-1.642-.169-.113-1.891.664v.371l1,.09c.023.54.034.945.034,1.631v.653c0,.574-.011,1.44-.023,2.07L81.538.63v.383h2.837V.63ZM88.574-2.52c-.833-.3-1.148-.54-1.148-1.091s.416-.9,1.2-.9a1.967,1.967,0,0,1,.889.225l.236,1.046h.552l.045-1.249A3.152,3.152,0,0,0,88.63-5c-1.385,0-2.15.81-2.15,1.721,0,.844.6,1.327,1.508,1.665l.574.191c.81.3,1.148.585,1.148,1.125,0,.585-.45.99-1.418.99a2.359,2.359,0,0,1-1.013-.2l-.27-1.136h-.585l.023,1.35A3.884,3.884,0,0,0,88.3,1.17c1.565,0,2.386-.81,2.386-1.755,0-.776-.473-1.35-1.689-1.777ZM98.232.495c-.011-.619-.023-1.474-.023-2.07v-1.17c0-1.609-.54-2.25-1.587-2.25a3.167,3.167,0,0,0-2.251,1.159V-6.255L94.4-8.01l-.158-.09-1.869.517v.371l1,.09v5.546c0,.574-.011,1.44-.023,2.07L92.435.63v.383h2.837V.63L94.416.495c-.011-.63-.023-1.5-.023-2.07V-3.4a2.516,2.516,0,0,1,1.767-.821c.7,0,1.036.36,1.036,1.5v1.147c0,.6-.011,1.451-.023,2.07L96.251.63v.383h2.837V.63Zm4.142-6.9a.771.771,0,0,0,.788-.765.755.755,0,0,0-.788-.754.751.751,0,0,0-.8.754A.767.767,0,0,0,102.374-6.4Zm.54,6.9c-.011-.63-.023-1.5-.023-2.07V-3.229l.023-1.642-.169-.113-1.891.664v.371l1,.09c.023.54.034.945.034,1.631v.653c0,.574-.011,1.44-.023,2.07l-.946.135v.383h2.837V.63Zm15.343-7.3v-.427H114.8v.427l1.137.124c.023,1.069.023,2.149.023,3.229h-4.019c0-1.091,0-2.171.023-3.229l1.137-.124v-.427h-3.456v.427l1.148.124c.022,1.08.022,2.171.022,3.274V-2.8c0,1.1,0,2.182-.022,3.262l-1.148.124v.428H113.1V.585L111.965.461c-.023-1.069-.023-2.171-.023-3.431h4.019c0,1.282,0,2.374-.023,3.431L114.8.585v.428h3.456V.585L117.109.461c-.023-1.091-.023-2.182-.023-3.262v-.607c0-1.1,0-2.2.023-3.274Zm4.672,7.976a2.822,2.822,0,0,0,2.837-3.06A2.861,2.861,0,0,0,122.929-5a2.853,2.853,0,0,0-2.825,3.1A2.814,2.814,0,0,0,122.929,1.17Zm0-.472c-1.081,0-1.7-.889-1.7-2.587s.619-2.632,1.7-2.632,1.7.922,1.7,2.632S124,.7,122.929.7Zm7.159-3.217c-.833-.3-1.148-.54-1.148-1.091s.417-.9,1.2-.9a1.967,1.967,0,0,1,.889.225l.236,1.046h.552l.045-1.249A3.152,3.152,0,0,0,130.145-5c-1.385,0-2.15.81-2.15,1.721,0,.844.6,1.327,1.508,1.665l.574.191c.81.3,1.148.585,1.148,1.125,0,.585-.45.99-1.418.99a2.359,2.359,0,0,1-1.013-.2l-.27-1.136h-.585l.023,1.35a3.884,3.884,0,0,0,1.857.461c1.565,0,2.386-.81,2.386-1.755,0-.776-.473-1.35-1.689-1.777ZM136.054-3.7a2.255,2.255,0,0,1,1.508-.675c.934,0,1.587.866,1.587,2.52,0,1.7-.765,2.4-1.711,2.4a1.959,1.959,0,0,1-1.385-.608Zm-.135-1.17-.169-.113-1.734.675v.371l.991.1c.023.5.034.934.034,1.62V1.361c0,.664-.011,1.373-.023,2.07l-1,.157V3.96h3.152V3.589l-1.126-.169c-.011-.7-.023-1.418-.023-2.092V.349a2.061,2.061,0,0,0,1.677.821c1.441,0,2.521-1.2,2.521-3.116,0-1.89-1.024-3.049-2.341-3.049a2.5,2.5,0,0,0-1.88.911Zm7.756-1.53a.771.771,0,0,0,.788-.765.755.755,0,0,0-.788-.754.751.751,0,0,0-.8.754A.767.767,0,0,0,143.675-6.4Zm.54,6.9c-.011-.63-.023-1.5-.023-2.07V-3.229l.023-1.642-.169-.113-1.891.664v.371l1,.09c.023.54.034.945.034,1.631v.653c0,.574-.011,1.44-.022,2.07l-.946.135v.383h2.837V.63Zm6.022-.236a1.38,1.38,0,0,1-.844.349c-.439,0-.709-.27-.709-.923V-4.286h1.666v-.54H148.7l.068-1.7h-.709l-.326,1.665-1.1.135v.439h1.047v2.992c0,.461-.011.731-.011,1.024a1.263,1.263,0,0,0,1.4,1.44,1.755,1.755,0,0,0,1.43-.63Zm5.336-.529c-.687.54-.968.72-1.407.72a.894.894,0,0,1-1-.956c0-.45.191-.934,1.272-1.35.27-.1.7-.247,1.137-.371Zm1.959.551a.635.635,0,0,1-.5.3c-.281,0-.45-.2-.45-.787V-2.88c0-1.53-.619-2.115-1.914-2.115a2.194,2.194,0,0,0-2.386,1.519.49.49,0,0,0,.552.473c.315,0,.518-.191.619-.574l.236-.844a2.75,2.75,0,0,1,.7-.1c.833,0,1.182.315,1.182,1.53v.382a12.021,12.021,0,0,0-1.418.405c-1.61.574-2.037,1.114-2.037,1.867A1.481,1.481,0,0,0,153.75,1.17,2.469,2.469,0,0,0,155.6.18a1.064,1.064,0,0,0,1.1.967,1.157,1.157,0,0,0,1.058-.63Zm3.692.214c-.011-.675-.023-1.395-.023-2.07v-4.68l.056-1.755-.169-.09-1.9.517v.371l1,.09v5.546c0,.675-.011,1.395-.023,2.07l-.979.135v.383h3.028V.63Z" transform="translate(1.021 48.168)" fill="#fff"/>
      </g>
    </g>
  </g>
</svg>
