<svg xmlns="http://www.w3.org/2000/svg" xmlns:xlink="http://www.w3.org/1999/xlink" width="210" height="69" viewBox="0 0 210 69">
  <defs>
    <clipPath id="clip-path">
      <rect id="長方形_1020" data-name="長方形 1020" width="210" height="69" fill="#fff"/>
    </clipPath>
  </defs>
  <g id="logo" transform="translate(-90 -113)">
    <g id="マスクグループ_3" data-name="マスクグループ 3" transform="translate(90 113)" clip-path="url(#clip-path)">
      <g id="logo-2" data-name="logo" transform="translate(0.213 1.846)">
        <path id="パス_323" data-name="パス 323" d="M1.148-7.9v5.192H38.2V-7.9ZM70.983,8.2H53.263V4.1H70.983ZM55.88-9.91H67.6v3.542H55.88ZM64.5-2.545h7.813V-13.694H51.37V-2.545h7.853c-.04.8-.121,1.69-.2,2.5H48.47V13.757h4.793V12.267H70.983v1.449h4.954V-.049H63.814Zm-.322-17.831v-3.341H59.183v3.341H44.724v10.062H49.4v-5.715h24.93v5.715h4.913V-20.375ZM105.9-12.527h-4.068v-4.387H105.9Zm10.028,8.935a7.8,7.8,0,0,1-1.651-.886c-.081,1.811-.242,2.093-.926,2.093H111.3c-.765,0-.886-.121-.886-1.167V-8.139h5.518ZM92.409,7.035V1.319a16.278,16.278,0,0,1,2.658,2.536c5.558-2.9,6.766-7.567,6.766-11.552v-.443h4.027v4.629c0,3.985.765,5.313,4.672,5.313h3.383a5.036,5.036,0,0,0,2.014-.322V7.035ZM97.363-8.139v.362c0,2.7-.644,5.756-4.954,8.13V-8.139Zm24.809-8.775V-21.5h-36v4.588H97.121v4.387H87.777V13.716h4.632V11.422h23.52v2.214H120.8V-12.527H110.653v-4.387ZM159.183,5.224A74.832,74.832,0,0,0,153.464.072c.121-.523.2-1.087.282-1.61h5.437ZM144.926-1.538h4.632a8.58,8.58,0,0,1-4.632,6.681Zm-5.115-6.923h9.907v2.9h-9.062V13.877h4.269V6.431A13.6,13.6,0,0,1,146.738,8.6a13.358,13.358,0,0,0,5.276-4.911A41.347,41.347,0,0,1,156.646,8.4l2.537-2.294V9.128c0,.443-.161.6-.685.6-.483.04-2.255.04-3.866-.04a14.317,14.317,0,0,1,1.53,4.146c2.537.04,4.39-.08,5.759-.765,1.45-.684,1.853-1.811,1.853-3.864V-5.563h-9.867v-2.9h10.955v-4.025h-25.05ZM150.967-19.45v-4.226h-5.075v4.226H133.81v9.58a32.44,32.44,0,0,0-2.7-6.279l-3.464,1.69a34.941,34.941,0,0,1,2.739,7.688l3.423-1.811V-7.5c0,1.207,0,2.455-.081,3.743-2.416,1.208-4.752,2.294-6.4,3.019L128.7,3.775c1.45-.805,2.94-1.691,4.43-2.576a18.48,18.48,0,0,1-4.632,9.338,19.577,19.577,0,0,1,3.423,3.18C137.475,8.2,138.4-1.015,138.4-7.455v-7.688h26.7V-19.45Zm51.792,7.487H188.18v-3.3h14.579Zm-18.848-7.366V-11.4h2.98v3.542h17.157V-11.44h3.1v-7.889h-9.625v-4.226h-4.632v4.226Zm-2.859-2.858-.685.2h-8.739V13.877h4.148v-31.6h3.141c-.644,2.737-1.49,6.239-2.3,8.775A10.77,10.77,0,0,1,179.4-1.9c0,1.127-.161,1.932-.6,2.254a2.087,2.087,0,0,1-1.128.362c-.483,0-1.047,0-1.772-.04a10.144,10.144,0,0,1,1.047,4.065,17.032,17.032,0,0,0,2.578-.08,5.753,5.753,0,0,0,2.336-.845c1.248-.886,1.772-2.576,1.772-5.152a12.387,12.387,0,0,0-2.94-8.09c1.128-3.14,2.457-7.527,3.5-10.948Zm20.5,31.475c-.564,0-.644-.121-.644-1.288V-.693h6.041V-4.96H184.515V-.693h4.43c-.4,5.595-1.611,8.855-8.055,10.787a11.635,11.635,0,0,1,2.537,3.743c7.853-2.616,9.545-7.245,10.028-14.53h2.98V8.041c0,4.105.765,5.474,4.269,5.474h2.7c2.859,0,3.907-1.529,4.309-7.164a12.318,12.318,0,0,1-3.987-1.771c-.081,4.105-.2,4.709-.846,4.709Z" transform="translate(-1.148 23.716)" fill="#fff"/>
        <path id="パス_322" data-name="パス 322" d="M4.92-6.447v-.546H.49v.546l1.467.158c.029,1.38.029,2.774.029,4.183v.776c0,1.409,0,2.789-.029,4.169L.49,3v.546H4.92V3L3.453,2.825c-.029-1.38-.029-2.774-.029-4.154v-.776c0-1.409,0-2.817.029-4.183Zm8.472,8.122a2.619,2.619,0,0,1-2.2,1.193c-1.51,0-2.6-1.15-2.6-3.177S9.566-3.529,11-3.529a2.762,2.762,0,0,1,.849.144l.3,1.107a.788.788,0,0,0,.834.733.648.648,0,0,0,.69-.575,2.68,2.68,0,0,0-2.762-2.012A3.725,3.725,0,0,0,7.236-.165c0,2.4,1.424,3.91,3.553,3.91a2.883,2.883,0,0,0,2.92-1.926ZM23.3,2.882C23.288,2.092,23.274,1,23.274.237V-1.258c0-2.056-.69-2.875-2.028-2.875a4.047,4.047,0,0,0-2.877,1.481V-5.743l.043-2.243-.2-.115-2.388.661v.474l1.28.115V.237c0,.733-.014,1.84-.029,2.645l-1.179.172v.489h3.625V3.055l-1.093-.172C18.412,2.077,18.4.971,18.4.237V-2.091a3.215,3.215,0,0,1,2.258-1.049c.892,0,1.323.46,1.323,1.912V.237c0,.762-.014,1.854-.029,2.645l-1.179.172v.489H24.4V3.055ZM28.6-5.929A.985.985,0,0,0,29.6-6.907.964.964,0,0,0,28.6-7.87a.96.96,0,0,0-1.021.963A.98.98,0,0,0,28.6-5.929Zm.69,8.812c-.014-.8-.029-1.912-.029-2.645V-1.876l.029-2.1-.216-.144-2.416.848V-2.8l1.28.115c.029.69.043,1.208.043,2.084V.237c0,.733-.014,1.84-.029,2.645l-1.208.172v.489h3.625V3.055Zm10.888,0C40.16,2.092,40.145,1,40.145.237V-1.272c0-2.027-.676-2.861-2.014-2.861A4.026,4.026,0,0,0,35.3-2.681l-.129-1.294-.216-.144-2.215.863v.474l1.251.129c.029.633.043,1.179.043,2.07V.237c0,.733-.014,1.84-.029,2.645l-1.165.172v.489h3.625V3.055L35.37,2.882c-.014-.8-.029-1.912-.029-2.645V-2.091a3.236,3.236,0,0,1,2.2-1.049c.921,0,1.309.489,1.309,1.912V.237c0,.762-.014,1.854-.029,2.645l-1.165.172v.489h3.625V3.055Zm7.192.862a3.605,3.605,0,0,0,3.625-3.91,3.656,3.656,0,0,0-3.625-3.967,3.646,3.646,0,0,0-3.61,3.967A3.6,3.6,0,0,0,47.366,3.745Zm0-.6c-1.381,0-2.172-1.136-2.172-3.306s.791-3.364,2.172-3.364S49.538-2.35,49.538-.165,48.732,3.141,47.366,3.141ZM65.59,2.882C65.576,2.092,65.561,1,65.561.237V-1.4c0-1.941-.734-2.731-2.014-2.731A3.7,3.7,0,0,0,60.7-2.652a1.752,1.752,0,0,0-1.87-1.481A3.861,3.861,0,0,0,56.082-2.7l-.129-1.279-.216-.144-2.215.863v.474l1.251.129c.043.633.043,1.179.043,2.07V.237c0,.733-.014,1.84-.029,2.645l-1.165.172v.489h3.625V3.055l-1.093-.172c-.014-.8-.029-1.912-.029-2.645V-2.091a3.105,3.105,0,0,1,2.143-1.035c.892,0,1.295.474,1.295,1.912V.237c0,.762-.014,1.854-.029,2.645l-1.194.172v.489h3.625V3.055l-1.079-.172C60.858,2.092,60.843,1,60.843.237V-1.272a6.8,6.8,0,0,0-.043-.8,3.193,3.193,0,0,1,2.158-1.049c.906,0,1.323.417,1.323,1.883V.237c0,.762-.014,1.854-.029,2.645l-1.165.172v.489H66.7V3.055Zm5.293-8.812a.985.985,0,0,0,1.007-.978.964.964,0,0,0-1.007-.963.96.96,0,0,0-1.021.963A.98.98,0,0,0,70.883-5.929Zm.69,8.812c-.014-.8-.029-1.912-.029-2.645V-1.876l.029-2.1-.216-.144-2.416.848V-2.8l1.28.115c.029.69.043,1.208.043,2.084V.237c0,.733-.014,1.84-.029,2.645l-1.208.172v.489h3.625V3.055Zm10.773-6.8H79.3v.489l1.424.158L78.737,2.322,76.665-3.284l1.366-.144v-.489h-3.74v.489l.892.115L78.118,4l-.072.172a5.207,5.207,0,0,1-1.525,2.343L76.406,6.4a1.589,1.589,0,0,0-1.151-.575.944.944,0,0,0-1.007.647c0,.589.662.992,1.41.992,1.151,0,2.143-1.064,3.164-3.766l2.647-6.986.877-.144ZM88.517,1.9c-.877.69-1.237.92-1.8.92A1.142,1.142,0,0,1,85.439,1.6c0-.575.245-1.193,1.625-1.725.345-.129.892-.316,1.453-.474Zm2.5.7A.811.811,0,0,1,90.387,3c-.36,0-.575-.259-.575-1.006V-1.43c0-1.955-.791-2.7-2.445-2.7-1.625,0-2.776.733-3.049,1.941a.627.627,0,0,0,.7.6c.4,0,.662-.244.791-.733l.3-1.078a3.514,3.514,0,0,1,.892-.129c1.064,0,1.51.4,1.51,1.955v.489a15.36,15.36,0,0,0-1.812.518C84.648.166,84.1.856,84.1,1.819a1.892,1.892,0,0,0,2.086,1.926A3.155,3.155,0,0,0,88.546,2.48a1.36,1.36,0,0,0,1.41,1.236,1.479,1.479,0,0,0,1.352-.8Zm9.594.273c-.014-.791-.029-1.883-.029-2.645V-1.272c0-2.027-.676-2.861-2.014-2.861a4.026,4.026,0,0,0-2.834,1.452l-.129-1.294-.216-.144-2.215.863v.474l1.251.129c.029.633.043,1.179.043,2.07V.237c0,.733-.014,1.84-.029,2.645l-1.165.172v.489H96.9V3.055L95.81,2.882c-.014-.8-.029-1.912-.029-2.645V-2.091a3.236,3.236,0,0,1,2.2-1.049c.921,0,1.309.489,1.309,1.912V.237c0,.762-.014,1.854-.029,2.645L98.1,3.055v.489h3.625V3.055Zm5.293-8.812a.985.985,0,0,0,1.007-.978.964.964,0,0,0-1.007-.963.96.96,0,0,0-1.021.963A.98.98,0,0,0,105.907-5.929Zm.69,8.812c-.014-.8-.029-1.912-.029-2.645V-1.876l.029-2.1-.216-.144-2.416.848V-2.8l1.28.115c.029.69.043,1.208.043,2.084V.237c0,.733-.014,1.84-.029,2.645l-1.208.172v.489h3.625V3.055ZM113.041-.97c-1.064-.388-1.467-.69-1.467-1.394s.532-1.15,1.539-1.15a2.513,2.513,0,0,1,1.136.288l.3,1.337h.7l.058-1.6a4.028,4.028,0,0,0-2.2-.647c-1.769,0-2.747,1.035-2.747,2.2,0,1.078.762,1.7,1.927,2.127l.734.244c1.036.388,1.467.747,1.467,1.437,0,.748-.575,1.265-1.812,1.265a3.015,3.015,0,0,1-1.295-.259l-.345-1.452h-.748l.029,1.725a4.963,4.963,0,0,0,2.373.589c2,0,3.049-1.035,3.049-2.242,0-.992-.6-1.725-2.158-2.271Zm12.341,3.852c-.014-.791-.029-1.883-.029-2.645V-1.258c0-2.056-.69-2.875-2.028-2.875a4.047,4.047,0,0,0-2.877,1.481V-5.743l.043-2.243-.2-.115-2.388.661v.474l1.28.115V.237c0,.733-.014,1.84-.029,2.645l-1.179.172v.489H121.6V3.055l-1.093-.172c-.014-.8-.029-1.912-.029-2.645V-2.091a3.215,3.215,0,0,1,2.258-1.049c.892,0,1.323.46,1.323,1.912V.237c0,.762-.014,1.854-.029,2.645l-1.179.172v.489h3.625V3.055Zm5.293-8.812a.985.985,0,0,0,1.007-.978.964.964,0,0,0-1.007-.963.96.96,0,0,0-1.021.963A.98.98,0,0,0,130.676-5.929Zm.69,8.812c-.014-.8-.029-1.912-.029-2.645V-1.876l.029-2.1-.216-.144-2.416.848V-2.8l1.28.115c.029.69.043,1.208.043,2.084V.237c0,.733-.014,1.84-.029,2.645l-1.208.172v.489h3.625V3.055Zm19.6-9.329v-.546h-4.416v.546l1.453.158c.029,1.366.029,2.746.029,4.126H142.9c0-1.394,0-2.774.029-4.126l1.453-.158v-.546h-4.416v.546l1.467.158c.029,1.38.029,2.774.029,4.183v.776c0,1.409,0,2.789-.029,4.169L139.967,3v.546h4.416V3l-1.453-.158C142.9,1.474,142.9.065,142.9-1.545h5.135c0,1.639,0,3.033-.029,4.384L146.555,3v.546h4.416V3L149.5,2.839c-.029-1.394-.029-2.789-.029-4.169v-.776c0-1.409,0-2.817.029-4.183ZM156.94,3.745a3.605,3.605,0,0,0,3.625-3.91,3.656,3.656,0,0,0-3.625-3.967,3.646,3.646,0,0,0-3.61,3.967A3.6,3.6,0,0,0,156.94,3.745Zm0-.6c-1.381,0-2.172-1.136-2.172-3.306s.791-3.364,2.172-3.364,2.172,1.179,2.172,3.364S158.306,3.141,156.94,3.141ZM166.088-.97c-1.064-.388-1.467-.69-1.467-1.394s.532-1.15,1.539-1.15a2.513,2.513,0,0,1,1.136.288l.3,1.337h.7l.058-1.6a4.028,4.028,0,0,0-2.2-.647c-1.769,0-2.747,1.035-2.747,2.2,0,1.078.762,1.7,1.927,2.127l.734.244c1.036.388,1.467.747,1.467,1.437,0,.748-.575,1.265-1.812,1.265a3.015,3.015,0,0,1-1.295-.259l-.345-1.452h-.748l.029,1.725a4.963,4.963,0,0,0,2.373.589c2,0,3.049-1.035,3.049-2.242,0-.992-.6-1.725-2.158-2.271Zm7.623-1.509a2.881,2.881,0,0,1,1.927-.862c1.194,0,2.028,1.107,2.028,3.22,0,2.171-.978,3.062-2.186,3.062a2.5,2.5,0,0,1-1.769-.776Zm-.173-1.495-.216-.144-2.215.863v.474l1.266.129c.029.633.043,1.193.043,2.07V3.989c0,.848-.014,1.754-.029,2.645l-1.28.2V7.31h4.027V6.836L173.7,6.62c-.014-.891-.029-1.811-.029-2.674V2.7a2.633,2.633,0,0,0,2.143,1.049c1.841,0,3.222-1.538,3.222-3.982,0-2.415-1.309-3.9-2.992-3.9a3.193,3.193,0,0,0-2.4,1.164Zm9.91-1.955a.985.985,0,0,0,1.007-.978.964.964,0,0,0-1.007-.963.96.96,0,0,0-1.021.963A.98.98,0,0,0,183.449-5.929Zm.69,8.812c-.014-.8-.029-1.912-.029-2.645V-1.876l.029-2.1-.216-.144-2.416.848V-2.8l1.28.115c.029.69.043,1.208.043,2.084V.237c0,.733-.014,1.84-.029,2.645l-1.208.172v.489h3.625V3.055Zm7.7-.3a1.763,1.763,0,0,1-1.079.446c-.561,0-.906-.345-.906-1.179V-3.227h2.129v-.69h-2.114l.086-2.171h-.906l-.417,2.127-1.41.172v.561h1.338V.6c0,.589-.014.934-.014,1.308a1.613,1.613,0,0,0,1.784,1.84,2.242,2.242,0,0,0,1.827-.8Zm6.818-.676c-.877.69-1.237.92-1.8.92a1.142,1.142,0,0,1-1.28-1.222c0-.575.245-1.193,1.625-1.725.345-.129.892-.316,1.453-.474Zm2.5.7a.811.811,0,0,1-.633.388c-.36,0-.575-.259-.575-1.006V-1.43c0-1.955-.791-2.7-2.445-2.7-1.625,0-2.776.733-3.049,1.941a.627.627,0,0,0,.7.6c.4,0,.662-.244.791-.733l.3-1.078a3.514,3.514,0,0,1,.892-.129c1.064,0,1.51.4,1.51,1.955v.489a15.361,15.361,0,0,0-1.812.518c-2.057.733-2.6,1.423-2.6,2.386a1.892,1.892,0,0,0,2.086,1.926,3.155,3.155,0,0,0,2.359-1.265,1.36,1.36,0,0,0,1.41,1.236,1.478,1.478,0,0,0,1.352-.8Zm4.718.273c-.014-.862-.029-1.782-.029-2.645v-5.98l.072-2.243L205.7-8.1l-2.431.661v.474l1.28.115V.237c0,.862-.014,1.782-.029,2.645l-1.251.172v.489h3.869V3.055Z" transform="translate(1.44 59.298)" fill="#fff"/>
      </g>
    </g>
  </g>
</svg>
